<?xml version="1.0" encoding="UTF-8"?>
<!DOCTYPE svg PUBLIC "-//W3C//DTD SVG 1.1//EN" "http://www.w3.org/Graphics/SVG/1.1/DTD/svg11.dtd">
<svg xmlns="http://www.w3.org/2000/svg" version="1.1" width="128px" height="128px" style="shape-rendering:geometricPrecision; text-rendering:geometricPrecision; image-rendering:optimizeQuality; fill-rule:evenodd; clip-rule:evenodd" xmlns:xlink="http://www.w3.org/1999/xlink">
<g><path style="opacity:0.819" fill="#000000" d="M 61.5,-0.5 C 63.1667,-0.5 64.8333,-0.5 66.5,-0.5C 88.4132,17.5237 92.5798,39.1903 79,64.5C 75.1163,70.3591 69.9496,74.6925 63.5,77.5C 44.8291,65.4779 37.6625,48.4779 42,26.5C 45.3046,15.0525 51.8046,6.05255 61.5,-0.5 Z M 63.5,5.5 C 72.5445,11.7577 78.2112,20.2577 80.5,31C 76,35.5 71.5,40 67,44.5C 66.8315,36.8117 66.3315,29.1451 65.5,21.5C 63.939,20.6527 62.439,20.9861 61,22.5C 60.6667,24.5 60.3333,26.5 60,28.5C 56.9838,25.6511 54.1504,22.6511 51.5,19.5C 54.4585,13.8797 58.4585,9.213 63.5,5.5 Z M 48.5,26.5 C 52.4643,29.9629 56.2977,33.6295 60,37.5C 60.6667,47.5 60.6667,57.5 60,67.5C 47.9488,56.1753 44.1155,42.5086 48.5,26.5 Z M 79.5,40.5 C 79.9767,48.9088 77.4767,56.5755 72,63.5C 70.6218,65.2134 68.9552,66.5467 67,67.5C 66.3333,62.8333 66.3333,58.1667 67,53.5C 71.3702,49.2978 75.5368,44.9645 79.5,40.5 Z"/></g>
<g><path style="opacity:0.63" fill="#000000" d="M 63.5,10.5 C 65.913,11.6798 66.913,13.6798 66.5,16.5C 63.7118,16.9231 61.7118,15.9231 60.5,13.5C 61.3398,12.265 62.3398,11.265 63.5,10.5 Z"/></g>
<g><path style="opacity:0.825" fill="#000000" d="M 86.5,127.5 C 79.8333,127.5 73.1667,127.5 66.5,127.5C 64.5,126.167 62.5,126.167 60.5,127.5C 54.1667,127.5 47.8333,127.5 41.5,127.5C 23.8224,123.054 11.3224,112.387 4,95.5C 0.0903744,85.2473 -0.242959,74.914 3,64.5C 30.8678,58.9332 51.2012,68.9332 64,94.5C 76.2787,68.6107 96.4453,58.6107 124.5,64.5C 129.502,96.1637 116.835,117.164 86.5,127.5 Z M 12.5,69.5 C 18.0155,68.3486 23.6822,68.3486 29.5,69.5C 29.666,74.8437 29.4994,80.1771 29,85.5C 23.6314,79.9637 18.1314,74.6303 12.5,69.5 Z M 102.5,68.5 C 106.846,68.3343 111.179,68.501 115.5,69C 110,74.5 104.5,80 99,85.5C 98.5006,80.1771 98.334,74.8437 98.5,69.5C 100.099,69.7678 101.432,69.4345 102.5,68.5 Z M 91.5,72.5 C 92.654,78.987 92.8206,85.6536 92,92.5C 84,100.5 76,108.5 68,116.5C 66.1632,101.636 70.9965,89.1358 82.5,79C 85.5672,76.8118 88.5672,74.6452 91.5,72.5 Z M 7.5,73.5 C 17.6317,83.1312 27.6317,92.9645 37.5,103C 30.1667,103.667 22.8333,103.667 15.5,103C 8.82663,94.1615 6.15997,84.3282 7.5,73.5 Z M 35.5,73.5 C 52.9743,82.4407 61.1409,96.774 60,116.5C 52,108.5 44,100.5 36,92.5C 35.5005,86.1754 35.3338,79.8421 35.5,73.5 Z M 119.5,73.5 C 121.456,84.0164 119.123,93.6831 112.5,102.5C 105.189,103.665 97.856,103.831 90.5,103C 100.369,93.2984 110.036,83.4651 119.5,73.5 Z M 21.5,110.5 C 28.9887,109.344 36.6554,109.178 44.5,110C 48.1667,113.667 51.8333,117.333 55.5,121C 49.7633,121.789 44.0966,121.456 38.5,120C 32.1974,117.84 26.5308,114.673 21.5,110.5 Z M 83.5,109.5 C 90.8409,109.334 98.1742,109.5 105.5,110C 96.2814,118.851 85.2814,122.517 72.5,121C 76.3705,117.298 80.0371,113.464 83.5,109.5 Z"/></g>
</svg>
