<?xml version="1.0" encoding="UTF-8"?>
<!DOCTYPE svg PUBLIC "-//W3C//DTD SVG 1.1//EN" "http://www.w3.org/Graphics/SVG/1.1/DTD/svg11.dtd">
<svg xmlns="http://www.w3.org/2000/svg" version="1.1" width="128px" height="128px" style="shape-rendering:geometricPrecision; text-rendering:geometricPrecision; image-rendering:optimizeQuality; fill-rule:evenodd; clip-rule:evenodd" xmlns:xlink="http://www.w3.org/1999/xlink">
<g><path style="opacity:0.877" fill="#010402" d="M 61.5,-0.5 C 63.1667,-0.5 64.8333,-0.5 66.5,-0.5C 88.4132,17.5237 92.5798,39.1903 79,64.5C 75.1163,70.3591 69.9496,74.6925 63.5,77.5C 44.8291,65.4779 37.6625,48.4779 42,26.5C 45.3046,15.0525 51.8046,6.05255 61.5,-0.5 Z M 68.5,10.5 C 68.1583,11.3382 67.4916,11.6716 66.5,11.5C 64.5138,10.2388 62.6805,10.5722 61,12.5C 60.6522,14.1398 61.1522,15.4732 62.5,16.5C 60.0408,19.0872 58.3742,22.0872 57.5,25.5C 55.1878,23.8545 53.1878,21.8545 51.5,19.5C 54.4258,13.74 58.5925,9.07332 64,5.5C 65.7073,7.03748 67.2073,8.70415 68.5,10.5 Z M 54.5,31.5 C 51.5602,42.3802 52.2269,53.0469 56.5,63.5C 50.0665,56.5576 46.7331,48.2243 46.5,38.5C 46.799,34.3674 47.6324,30.3674 49,26.5C 50.7038,28.3734 52.5372,30.0401 54.5,31.5 Z"/></g>
<g><path style="opacity:0.692" fill="#020604" d="M 66.5,11.5 C 66.6308,14.3667 65.2974,16.0334 62.5,16.5C 61.1522,15.4732 60.6522,14.1398 61,12.5C 62.6805,10.5722 64.5138,10.2388 66.5,11.5 Z"/></g>
<g><path style="opacity:0.993" fill="#34cc8b" d="M 68.5,10.5 C 74.3456,14.2092 78.1789,19.5425 80,26.5C 80.6667,28.5 80.6667,30.5 80,32.5C 75.6667,36.8333 71.3333,41.1667 67,45.5C 66.6667,38.1667 66.3333,30.8333 66,23.5C 65.0475,21.4078 63.7141,21.0745 62,22.5C 61.6667,25.1667 61.3333,27.8333 61,30.5C 59.1978,29.2107 58.0312,27.5441 57.5,25.5C 58.3742,22.0872 60.0408,19.0872 62.5,16.5C 65.2974,16.0334 66.6308,14.3667 66.5,11.5C 67.4916,11.6716 68.1583,11.3382 68.5,10.5 Z"/></g>
<g><path style="opacity:0.952" fill="#36d18e" d="M 54.5,31.5 C 56.8333,33.1667 58.8333,35.1667 60.5,37.5C 60.8274,47.6806 60.494,57.6806 59.5,67.5C 58.4884,66.1283 57.4884,64.795 56.5,63.5C 52.2269,53.0469 51.5602,42.3802 54.5,31.5 Z"/></g>
<g><path style="opacity:1" fill="#279a69" d="M 60.5,37.5 C 61.6588,47.992 61.8255,58.6586 61,69.5C 60.2828,68.9558 59.7828,68.2891 59.5,67.5C 60.494,57.6806 60.8274,47.6806 60.5,37.5 Z"/></g>
<g><path style="opacity:1" fill="#34cb8a" d="M 67.5,68.5 C 66.5128,63.6946 66.1795,58.6946 66.5,53.5C 70.7967,48.7021 75.2967,44.0355 80,39.5C 80.7266,51.3706 76.5599,61.0373 67.5,68.5 Z"/></g>
<g><path style="opacity:1" fill="#0d3423" d="M 66.5,53.5 C 66.1795,58.6946 66.5128,63.6946 67.5,68.5C 67.44,69.0431 67.1067,69.3764 66.5,69.5C 65.1853,64.0136 65.1853,58.6803 66.5,53.5 Z"/></g>
<g><path style="opacity:0.895" fill="#010302" d="M 86.5,127.5 C 79.8333,127.5 73.1667,127.5 66.5,127.5C 64.5,126.167 62.5,126.167 60.5,127.5C 54.1667,127.5 47.8333,127.5 41.5,127.5C 23.8224,123.054 11.3224,112.387 4,95.5C 0.0903744,85.2473 -0.242959,74.914 3,64.5C 30.8678,58.9332 51.2012,68.9332 64,94.5C 76.2787,68.6107 96.4453,58.6107 124.5,64.5C 129.502,96.1637 116.835,117.164 86.5,127.5 Z M 29.5,74.5 C 26.1667,74.8333 22.8333,75.1667 19.5,75.5C 17.0365,73.5389 14.7032,71.3722 12.5,69C 18.1949,68.3742 23.8615,68.5409 29.5,69.5C 29.5,71.1667 29.5,72.8333 29.5,74.5 Z M 108.5,76.5 C 105.012,76.5399 101.679,77.2066 98.5,78.5C 98.5,75.5 98.5,72.5 98.5,69.5C 104.138,68.5409 109.805,68.3742 115.5,69C 112.961,71.3697 110.628,73.8697 108.5,76.5 Z M 92.5,81.5 C 78.9,89.0953 70.2333,100.429 66.5,115.5C 66.8053,96.2114 75.3053,81.8781 92,72.5C 92.498,75.4816 92.6646,78.4816 92.5,81.5 Z M 17.5,82.5 C 17.2512,89.6021 17.9178,96.6021 19.5,103.5C 17.2776,103.822 15.4443,103.155 14,101.5C 9.58752,94.096 7.08752,86.096 6.5,77.5C 6.47697,75.9334 6.97697,74.6001 8,73.5C 11.0359,76.7044 14.2026,79.7044 17.5,82.5 Z M 120.5,76.5 C 119.508,76.6716 118.842,76.3382 118.5,75.5C 119.988,72.8136 120.655,73.1469 120.5,76.5 Z M 22.5,109.5 C 23.3382,109.842 23.6716,110.508 23.5,111.5C 21.8946,110.994 21.5613,110.327 22.5,109.5 Z"/></g>
<g><path style="opacity:0.929" fill="#35d08e" d="M 29.5,74.5 C 29.8168,78.7016 29.4834,82.7016 28.5,86.5C 25.0985,83.1047 22.0985,79.438 19.5,75.5C 22.8333,75.1667 26.1667,74.8333 29.5,74.5 Z"/></g>
<g><path style="opacity:1" fill="#145036" d="M 29.5,74.5 C 30.8111,78.6829 30.8111,83.0162 29.5,87.5C 28.8933,87.3764 28.56,87.0431 28.5,86.5C 29.4834,82.7016 29.8168,78.7016 29.5,74.5 Z"/></g>
<g><path style="opacity:0.998" fill="#34cc8b" d="M 35.5,74.5 C 36.1667,74.5 36.8333,74.5 37.5,74.5C 51.0103,80.8161 58.677,91.4827 60.5,106.5C 60.815,110.371 60.4816,114.038 59.5,117.5C 51.5357,109.035 43.369,100.702 35,92.5C 34.2124,86.418 34.379,80.418 35.5,74.5 Z"/></g>
<g><path style="opacity:0.948" fill="#31c284" d="M 108.5,76.5 C 105.204,80.2976 101.704,83.9643 98,87.5C 97.1955,84.3035 97.3622,81.3035 98.5,78.5C 101.679,77.2066 105.012,76.5399 108.5,76.5 Z"/></g>
<g><path style="opacity:1" fill="#35cf8d" d="M 118.5,75.5 C 118.842,76.3382 119.508,76.6716 120.5,76.5C 121.452,86.6372 118.786,95.6372 112.5,103.5C 104.648,103.825 96.9818,103.492 89.5,102.5C 98.8859,93.1111 108.553,84.1111 118.5,75.5 Z"/></g>
<g><path style="opacity:0.967" fill="#34cc8b" d="M 92.5,81.5 C 92.6655,85.5138 92.4988,89.5138 92,93.5C 84.1667,101.333 76.3333,109.167 68.5,117C 67.184,117.528 66.5173,117.028 66.5,115.5C 70.2333,100.429 78.9,89.0953 92.5,81.5 Z"/></g>
<g><path style="opacity:0.973" fill="#34cb8a" d="M 17.5,82.5 C 24.6315,89.1307 31.6315,95.9641 38.5,103C 32.1754,103.5 25.8421,103.666 19.5,103.5C 17.9178,96.6021 17.2512,89.6021 17.5,82.5 Z"/></g>
<g><path style="opacity:1" fill="#0c3322" d="M 89.5,102.5 C 96.9818,103.492 104.648,103.825 112.5,103.5C 104.657,104.82 96.6572,104.82 88.5,103.5C 88.6236,102.893 88.9569,102.56 89.5,102.5 Z"/></g>
<g><path style="opacity:0.997" fill="#33c787" d="M 22.5,109.5 C 29.6549,108.345 36.9882,108.178 44.5,109C 48.6821,113.015 52.6821,117.182 56.5,121.5C 43.6435,123.766 32.6435,120.433 23.5,111.5C 23.6716,110.508 23.3382,109.842 22.5,109.5 Z"/></g>
<g><path style="opacity:1" fill="#33c989" d="M 83.5,108.5 C 113,104.834 114.667,109.001 88.5,121C 82.5482,122.33 76.5482,122.663 70.5,122C 75.0367,117.631 79.3701,113.131 83.5,108.5 Z"/></g>
<g><path style="opacity:1" fill="#1e744f" d="M 60.5,106.5 C 61.8095,110.351 61.8095,114.351 60.5,118.5C 59.8933,118.376 59.56,118.043 59.5,117.5C 60.4816,114.038 60.815,110.371 60.5,106.5 Z"/></g>
</svg>
