<?xml version="1.0" standalone="no"?>
<!DOCTYPE svg PUBLIC "-//W3C//DTD SVG 20010904//EN"
 "http://www.w3.org/TR/2001/REC-SVG-20010904/DTD/svg10.dtd">
<svg version="1.0" xmlns="http://www.w3.org/2000/svg"
 width="1920.000000pt" height="1280.000000pt" viewBox="0 0 1920.000000 1280.000000"
 preserveAspectRatio="xMidYMid meet">

<g transform="translate(0.000000,1280.000000) scale(0.100000,-0.100000)"
fill="#000000" stroke="none">
<path d="M10070 8494 c0 -8 5 -12 10 -9 6 3 10 10 10 16 0 5 -4 9 -10 9 -5 0
-10 -7 -10 -16z"/>
<path d="M10072 8426 c-7 -15 -16 -25 -21 -21 -5 3 -13 -4 -16 -15 -5 -17 -10
-19 -20 -10 -12 10 -10 16 12 36 29 27 19 32 -16 8 -19 -13 -22 -23 -18 -49 5
-28 3 -32 -14 -28 -36 10 -49 -90 -18 -149 5 -9 10 -30 10 -45 2 -51 38 -101
40 -55 0 13 2 14 6 2 2 -8 8 -24 12 -35 5 -11 14 -33 20 -48 14 -36 14 -38 -4
-31 -18 7 -20 -18 -5 -47 14 -25 27 -24 51 4 l20 22 -16 -32 c-19 -40 -21 -63
-3 -45 14 14 54 16 62 3 7 -10 -42 -57 -51 -48 -11 12 -33 -15 -33 -40 0 -18
4 -24 15 -19 8 3 15 0 15 -7 -1 -13 -24 -47 -33 -47 -3 0 -8 8 -11 18 -3 9 -3
-14 -1 -52 3 -40 1 -66 -4 -60 -12 13 -41 117 -41 149 0 17 -5 25 -12 22 -14
-4 -14 -11 -3 -67 9 -48 -11 -20 -26 35 -5 22 -13 49 -16 60 l-5 20 16 -20
c19 -25 20 -9 1 25 -8 14 -14 19 -15 12 0 -7 -4 -11 -9 -7 -16 9 -71 198 -70
235 1 26 3 29 6 10 8 -53 14 -70 23 -70 5 0 8 12 6 28 -3 15 -8 52 -12 82 -4
30 -13 61 -21 68 -7 8 -10 18 -7 24 4 6 8 21 10 34 1 12 5 33 9 46 7 22 6 22
-8 3 -8 -11 -18 -36 -23 -55 -4 -19 -9 -38 -10 -42 -1 -5 -2 -19 -3 -33 0 -14
-6 -25 -12 -25 -7 0 -10 14 -7 35 3 26 1 34 -9 31 -9 -4 -10 1 -3 20 6 14 10
27 10 30 0 10 -43 -19 -82 -54 -111 -100 -104 -208 27 -399 50 -73 128 -229
139 -278 4 -16 -20 24 -52 90 -33 66 -93 172 -135 235 -42 63 -80 130 -83 147
l-6 33 -97 -101 c-53 -56 -107 -107 -121 -114 -30 -16 -220 -204 -220 -218 0
-6 9 -2 20 8 33 30 22 0 -16 -47 -37 -42 -87 -138 -79 -147 3 -2 17 11 33 28
l28 33 42 -18 c39 -17 40 -19 25 -36 -15 -17 -14 -18 20 -18 49 0 143 45 152
73 6 20 8 20 12 4 3 -13 11 -17 24 -14 11 3 19 0 19 -8 0 -7 7 -15 15 -19 8
-3 15 -17 15 -31 0 -18 4 -24 13 -19 7 5 7 1 -3 -12 -8 -10 -16 -21 -17 -23
-1 -2 -9 2 -18 9 -12 10 -15 10 -15 -3 0 -8 23 -29 50 -46 43 -27 50 -34 44
-55 -5 -23 1 -28 78 -65 45 -22 134 -53 196 -69 123 -33 236 -91 274 -142 12
-17 26 -30 31 -30 5 0 2 10 -7 23 -33 44 -56 82 -56 91 0 16 38 -25 50 -55 7
-16 16 -29 21 -29 12 0 11 10 -7 64 -19 55 -13 72 11 27 8 -17 19 -31 24 -31
5 0 16 -16 25 -35 16 -34 41 -51 30 -20 -4 8 -1 15 5 15 6 0 11 -5 11 -11 0
-15 39 -69 51 -69 5 0 3 10 -5 23 -9 12 -22 52 -30 87 -9 36 -25 94 -36 129
-11 35 -22 74 -24 85 -2 12 -7 39 -11 61 -4 22 -13 51 -20 65 -12 24 -11 65 2
100 11 29 28 157 36 270 2 25 4 7 5 -39 2 -64 5 -82 15 -78 11 4 11 -4 0 -46
-7 -28 -13 -63 -13 -77 0 -14 -5 -31 -12 -38 -23 -23 4 -26 45 -4 23 12 45 22
49 22 4 0 15 -14 24 -31 11 -21 19 -28 23 -20 8 12 21 -114 21 -189 0 -27 -3
-31 -10 -20 -7 10 -9 -6 -6 -54 2 -41 0 -77 -7 -87 -9 -14 -7 -22 7 -38 20
-22 46 -28 46 -11 0 5 3 9 8 8 16 -6 98 28 122 49 14 13 30 23 37 23 6 0 15
15 19 33 4 17 9 26 11 20 7 -21 20 -16 81 32 31 25 60 45 63 45 3 0 11 -26 18
-57 7 -32 21 -82 32 -111 25 -68 24 -75 -3 -61 -21 11 -21 9 3 -17 15 -16 51
-67 81 -114 30 -47 65 -94 78 -105 24 -20 21 -13 -10 35 -104 155 -150 276
-185 485 -25 151 -26 321 -2 295 3 -3 12 -36 20 -75 9 -38 34 -124 56 -190 23
-66 41 -128 41 -138 0 -26 36 -128 85 -242 23 -55 47 -113 53 -130 l10 -30 1
28 c1 15 -10 53 -23 85 -13 31 -29 78 -37 105 -7 26 -16 47 -20 47 -11 0 -38
84 -37 115 0 17 -13 59 -30 95 -16 36 -45 115 -63 175 -34 110 -34 110 -32
300 2 196 0 212 -13 110 l-8 -60 -8 73 c-10 97 -26 152 -42 152 -17 0 -27 25
-19 48 3 9 -6 2 -20 -16 -16 -22 -27 -29 -30 -20 -3 7 -6 3 -6 -9 -1 -13 -7
-23 -13 -23 -20 0 -37 48 -31 88 5 34 4 36 -9 18 -14 -18 -15 -18 -22 7 -6 25
-26 38 -26 18 0 -5 -9 -7 -19 -4 -11 3 -17 11 -15 18 3 7 1 16 -5 20 -6 3 -11
15 -11 26 0 33 -24 16 -31 -22 -4 -19 -7 -26 -8 -17 0 9 -6 18 -13 20 -8 3
-12 21 -11 46 1 24 -3 42 -9 42 -5 0 -8 -6 -5 -14 7 -18 -18 -42 -28 -27 -3 6
-8 44 -11 83 -7 98 -12 118 -29 118 -11 0 -13 -8 -9 -32 5 -29 4 -31 -7 -13
-12 19 -12 19 -20 0 -7 -19 -8 -19 -15 3 -9 30 -24 28 -24 -3 0 -14 -4 -25
-10 -25 -5 0 -10 7 -10 15 0 8 -4 15 -9 15 -5 0 -12 10 -16 23 l-7 22 -7 -25
-8 -25 -8 28 c-11 41 -28 34 -27 -13 0 -3 3 -21 7 -40 7 -31 6 -33 -9 -21 -9
7 -16 24 -16 37 0 13 -6 24 -13 24 -8 0 -18 9 -23 21 -10 21 -10 21 -22 -5z
m-52 -171 c0 -8 4 -15 10 -15 5 0 14 -9 20 -20 15 -29 -14 -16 -34 15 -19 28
-20 35 -6 35 6 0 10 -7 10 -15z m90 -15 c0 -5 -4 -10 -10 -10 -5 0 -10 5 -10
10 0 6 5 10 10 10 6 0 10 -4 10 -10z m6 -87 c-5 -12 -10 -11 -26 10 -22 27
-27 48 -8 29 17 -17 28 -15 29 6 1 11 3 8 6 -6 3 -13 2 -30 -1 -39z m269 25
c3 -18 8 -58 10 -88 3 -45 2 -49 -4 -20 -5 19 -9 27 -10 18 0 -10 -4 -18 -8
-18 -5 0 -9 32 -10 70 -1 73 10 93 22 38z m-535 -123 l-8 -40 -1 35 c-1 19 -4
53 -6 75 l-5 40 14 -35 c9 -24 11 -49 6 -75z m363 -5 c4 -30 2 -62 -3 -70 -7
-11 -10 -4 -10 25 0 22 -3 58 -6 80 -5 27 -3 37 3 30 6 -5 13 -35 16 -65z
m-473 40 c0 -5 -5 -10 -11 -10 -5 0 -7 5 -4 10 3 6 8 10 11 10 2 0 4 -4 4 -10z
m497 -52 c-3 -8 -6 -5 -6 6 -1 11 2 17 5 13 3 -3 4 -12 1 -19z m-96 -41 c-8
-8 -11 -5 -11 9 0 27 14 41 18 19 2 -9 -1 -22 -7 -28z m529 27 c0 -8 -4 -12
-10 -9 -5 3 -10 10 -10 16 0 5 5 9 10 9 6 0 10 -7 10 -16z m-973 -26 c-3 -8
-6 -5 -6 6 -1 11 2 17 5 13 3 -3 4 -12 1 -19z m550 -10 c-3 -7 -5 -2 -5 12 0
14 2 19 5 13 2 -7 2 -19 0 -25z m402 -40 c6 -26 11 -71 11 -100 0 -70 9 -101
27 -94 16 6 19 -1 28 -63 5 -40 4 -43 -10 -31 -15 13 -16 7 -10 -71 4 -46 11
-91 15 -99 4 -8 10 -54 14 -102 7 -84 6 -86 -14 -81 -23 6 -95 86 -95 106 0 7
-9 23 -19 37 l-18 25 7 -25 c6 -23 5 -24 -8 -7 -8 10 -18 37 -21 60 -4 24 -15
72 -26 108 -11 35 -20 79 -20 97 0 30 2 32 15 18 9 -8 12 -22 8 -32 -5 -14 -3
-16 11 -11 10 4 21 7 25 7 4 0 15 16 24 35 9 19 21 35 26 35 17 0 20 44 5 68
-8 13 -12 32 -9 42 7 23 -5 26 -24 8 -11 -11 -12 -8 -5 12 4 14 8 34 9 45 2
33 25 79 34 69 5 -5 13 -30 20 -56z m-1031 0 c-11 -30 -49 -71 -87 -92 -13 -8
-13 -6 2 11 9 11 15 22 12 25 -5 5 66 88 77 88 4 0 2 -14 -4 -32z m609 0 c-3
-8 -6 -5 -6 6 -1 11 2 17 5 13 3 -3 4 -12 1 -19z m-440 -71 c13 -15 29 -25 33
-22 5 3 12 0 16 -6 5 -8 3 -9 -6 -4 -10 6 -12 3 -7 -11 8 -22 -90 81 -104 111
-6 12 1 7 16 -10 15 -16 38 -42 52 -58z m-7 39 c0 -12 -5 -7 -19 24 -11 24
-11 24 3 6 9 -11 16 -24 16 -30z m397 -38 c-3 -7 -5 -2 -5 12 0 14 2 19 5 13
2 -7 2 -19 0 -25z m-682 -28 c-3 -5 -1 -10 5 -10 21 0 -29 -57 -65 -74 -19 -9
-35 -21 -35 -27 0 -10 102 43 131 67 8 8 24 14 34 14 11 0 -10 -20 -53 -51
-40 -28 -72 -54 -72 -59 0 -4 -13 -12 -28 -18 -16 -5 -35 -16 -43 -23 -8 -8
-34 -29 -58 -48 l-44 -35 24 35 c13 18 41 49 62 68 51 46 39 51 -20 9 -52 -38
-93 -53 -93 -34 0 6 9 17 20 23 17 11 18 10 13 -5 -6 -15 -5 -16 13 -2 10 8
24 20 30 25 6 6 33 27 60 48 27 21 63 53 79 71 28 32 54 48 40 26z m393 -27
c-2 -28 1 -38 12 -38 8 0 17 -10 20 -23 6 -28 22 -30 31 -5 7 15 8 16 8 1 1
-9 4 -24 8 -34 5 -13 3 -15 -7 -9 -10 6 -12 4 -7 -8 11 -28 -1 -20 -58 40 -58
60 -67 79 -35 70 17 -4 19 -1 14 19 -4 15 -2 24 6 24 7 0 10 -13 8 -37z m267
-48 c-8 -30 -18 -55 -21 -55 -7 0 4 53 19 98 18 53 20 18 2 -43z m425 55 c0
-16 -23 -60 -32 -60 -10 0 -10 1 3 39 10 29 29 43 29 21z m-995 -60 c-21 -16
-41 -30 -44 -30 -9 1 62 60 72 60 6 0 -7 -13 -28 -30z m812 -57 c-2 -16 -4 -5
-4 22 0 28 2 40 4 28 2 -13 2 -35 0 -50z m-141 1 c-8 -21 -15 -31 -15 -22 -1
18 20 70 26 65 2 -2 -3 -21 -11 -43z m-731 6 c-3 -5 -20 -19 -38 -30 l-32 -22
33 31 c32 30 49 40 37 21z m882 -62 c-3 -8 -6 -5 -6 6 -1 11 2 17 5 13 3 -3 4
-12 1 -19z m78 -32 c14 6 20 -7 31 -68 8 -50 -9 -49 -29 2 -9 23 -22 40 -31
40 -17 0 -21 26 -9 56 6 15 8 14 15 -8 6 -17 15 -25 23 -22z m-705 -55 c0 -74
-16 -54 -23 29 -5 58 -4 63 9 46 8 -12 14 -43 14 -75z m665 -31 c8 -15 28 -42
45 -58 30 -30 41 -68 18 -59 -62 23 -55 31 -73 -88 -3 -19 -11 -37 -17 -41 -8
-5 -9 10 -4 52 3 32 2 94 -4 138 -13 102 0 123 35 56z m-775 16 c0 -12 -28
-55 -33 -50 -3 3 -21 -8 -39 -25 -57 -53 -55 -34 2 24 47 48 70 65 70 51z
m-460 -41 c-7 -9 -15 -13 -18 -10 -3 2 1 11 8 20 7 9 15 13 18 10 3 -2 -1 -11
-8 -20z m514 0 c-6 -16 -44 -41 -44 -29 0 5 40 43 47 44 1 0 0 -7 -3 -15z
m-77 -67 c-3 -8 -6 -5 -6 6 -1 11 2 17 5 13 3 -3 4 -12 1 -19z m-40 -20 c-3
-8 -6 -5 -6 6 -1 11 2 17 5 13 3 -3 4 -12 1 -19z m540 -40 c-3 -8 -6 -5 -6 6
-1 11 2 17 5 13 3 -3 4 -12 1 -19z m475 -55 c10 -9 18 -22 18 -28 0 -14 -46
-29 -60 -20 -5 3 -11 1 -15 -5 -3 -5 -18 -10 -32 -10 -25 0 -26 0 -8 20 10 11
26 20 35 20 10 0 20 9 23 20 6 24 15 25 39 3z m-483 -106 c0 -10 -3 -15 -9
-12 -5 3 -9 25 -9 48 1 40 2 40 9 12 4 -16 8 -38 9 -48z m41 13 c4 -23 4 -38
0 -33 -11 10 -25 90 -15 81 4 -4 11 -26 15 -48z m460 20 c0 -5 -9 -14 -19 -20
-25 -13 -38 5 -14 19 23 13 33 14 33 1z m-80 -60 c0 -39 -3 -42 -37 -40 -11 1
-3 52 9 68 19 22 28 13 28 -28z m-99 -63 c-11 -29 -46 -53 -56 -38 -6 10 53
76 61 68 2 -2 0 -16 -5 -30z m-241 -53 c0 -8 -4 -12 -10 -9 -5 3 -10 13 -10
21 0 8 5 12 10 9 6 -3 10 -13 10 -21z"/>
<path d="M9795 8370 c-8 -13 5 -13 25 0 13 8 13 10 -2 10 -9 0 -20 -4 -23 -10z"/>
<path d="M9700 8296 c-118 -50 -146 -64 -159 -80 -7 -9 -10 -16 -5 -16 27 0
92 25 119 45 16 13 55 35 85 49 69 32 35 34 -40 2z"/>
<path d="M9645 8197 c-23 -13 -41 -32 -45 -46 -6 -25 -30 -42 -30 -22 0 6 5
11 11 11 5 0 7 5 4 10 -9 15 -41 12 -59 -5 -8 -8 -34 -16 -58 -16 -24 -1 -35
-3 -25 -6 25 -7 21 -21 -13 -38 -16 -9 -30 -19 -30 -24 0 -12 31 -8 60 8 24
14 24 13 -5 -21 -79 -92 -91 -112 -109 -172 l-15 -48 21 19 c11 10 32 38 46
63 37 65 44 73 52 60 8 -12 123 101 128 126 2 8 8 14 13 14 22 0 109 94 97
105 -2 2 -21 -6 -43 -18z m-135 -96 c0 -6 -4 -13 -10 -16 -5 -3 -10 1 -10 9 0
9 5 16 10 16 6 0 10 -4 10 -9z m-30 -81 c-34 -27 -63 -26 -31 0 13 11 31 20
40 20 12 0 10 -5 -9 -20z"/>
<path d="M9500 8170 c-12 -8 -9 -10 13 -10 15 0 27 5 27 10 0 13 -20 13 -40 0z"/>
<path d="M9923 8098 c2 -43 9 -83 14 -90 9 -10 22 -54 28 -88 3 -18 31 -70 38
-70 5 0 5 19 1 43 -4 23 -8 53 -10 67 -6 46 -16 85 -31 118 -47 106 -44 105
-40 20z"/>
<path d="M9425 7939 c-4 -6 -5 -12 -2 -15 2 -3 7 2 10 11 7 17 1 20 -8 4z"/>
<path d="M9276 7815 c-3 -9 -6 -22 -5 -28 0 -7 5 -1 10 12 5 13 8 26 5 28 -2
2 -6 -3 -10 -12z"/>
<path d="M10185 7439 c-4 -12 -2 -26 4 -32 8 -8 11 -2 11 21 0 37 -6 41 -15
11z"/>
<path d="M10640 7162 c0 -10 41 -45 46 -39 2 2 -7 13 -21 25 -14 12 -25 18
-25 14z"/>
<path d="M10690 7106 c0 -2 7 -7 16 -10 8 -3 12 -2 9 4 -6 10 -25 14 -25 6z"/>
<path d="M10300 7075 c-13 -16 -6 -63 17 -108 11 -23 17 -26 33 -17 23 12 26
30 6 30 -7 0 -21 12 -31 26 -13 21 -15 32 -6 50 12 27 -1 41 -19 19z"/>
<path d="M10483 7023 c-4 -27 -7 -109 -7 -183 0 -117 3 -142 22 -183 32 -72
79 -132 121 -156 39 -21 107 -30 96 -11 -3 6 -15 10 -26 10 -36 0 -95 38 -131
85 -56 72 -72 154 -65 337 3 81 4 148 2 148 -2 0 -7 -21 -12 -47z"/>
<path d="M10150 6990 c0 -5 5 -20 11 -34 15 -32 39 -23 39 15 0 24 -4 29 -25
29 -14 0 -25 -4 -25 -10z"/>
<path d="M10050 6979 c0 -6 7 -26 16 -45 24 -51 13 -68 -39 -61 -41 6 -39 3 9
-17 1 -1 5 -11 8 -23 6 -17 3 -23 -8 -23 -9 0 -16 7 -16 15 0 9 -6 15 -14 13
-8 -2 -26 11 -40 27 l-26 30 2 -25 c2 -18 -1 -24 -13 -23 -11 2 -15 -5 -13
-25 2 -26 -1 -28 -24 -24 -17 3 -23 1 -18 -7 10 -15 56 -14 56 2 0 9 3 8 9 -2
11 -17 -21 -51 -50 -51 -15 0 -19 -5 -15 -16 4 -9 2 -13 -5 -8 -12 7 -29 -12
-29 -33 0 -20 43 -59 75 -68 27 -8 28 -9 8 -12 -31 -6 -29 -23 2 -23 28 0 34
-15 9 -24 -10 -4 -13 -2 -8 7 5 8 2 8 -9 -2 -15 -11 -18 -10 -27 13 -5 14 -16
26 -24 26 -9 0 -12 7 -9 20 4 16 1 18 -23 14 -38 -7 -42 -13 -21 -28 26 -20
21 -36 -14 -43 -21 -4 -27 -9 -20 -16 16 -16 13 -30 -4 -23 -13 4 -14 2 -5
-14 12 -22 4 -44 -11 -34 -6 3 -17 -3 -25 -15 -9 -12 -25 -20 -37 -20 l-22 2
21 4 c12 2 24 13 27 23 3 13 0 17 -9 13 -9 -3 -14 2 -14 16 0 23 -10 25 -72
15 -27 -5 -35 -10 -31 -21 3 -8 0 -18 -7 -23 -6 -4 -16 -23 -20 -41 -5 -21 -6
4 -3 63 5 86 4 98 -11 104 -10 4 -22 2 -29 -5 -21 -21 -26 -11 -24 55 2 60 0
67 -18 70 -11 2 -28 1 -37 -2 -25 -8 -59 -68 -56 -101 1 -16 -1 -34 -6 -41 -4
-7 -2 -12 4 -12 6 0 10 -10 8 -22 -5 -37 -50 -34 -93 7 -28 25 -47 35 -71 35
-18 0 -35 -4 -38 -9 -4 -5 4 -7 16 -5 17 3 16 1 -4 -7 -30 -11 -38 -29 -13
-29 8 0 15 -4 15 -9 0 -5 5 -22 12 -38 6 -15 12 -32 12 -37 1 -6 15 -13 33
-18 30 -8 31 -10 26 -45 -8 -45 -37 -83 -46 -59 -4 9 -14 12 -27 9 -30 -8 -34
-21 -4 -15 l25 5 -24 -26 c-15 -16 -39 -29 -66 -33 -23 -4 -44 -11 -47 -15 -3
-5 -16 -6 -30 -3 -20 5 -24 2 -24 -15 0 -15 -6 -21 -21 -21 -12 0 -17 -4 -13
-11 4 -8 0 -9 -15 -4 -15 5 -21 2 -21 -9 0 -9 -4 -16 -10 -16 -5 0 -10 -6 -10
-14 0 -8 -9 -18 -20 -21 -12 -4 -19 -14 -18 -23 2 -11 -5 -18 -18 -20 -20 -3
-21 -5 -9 -40 9 -25 10 -43 3 -55 -5 -11 -7 -29 -4 -41 3 -13 2 -26 -2 -30 -4
-4 -7 -24 -8 -44 -2 -72 -3 -74 -24 -67 -13 4 -20 2 -21 -7 -1 -7 -2 -17 -4
-23 -1 -5 -3 -22 -3 -37 -2 -28 -32 -42 -32 -14 0 23 -50 6 -61 -21 -12 -33
-12 -33 17 -33 20 0 25 -4 20 -16 -3 -9 -9 -27 -12 -40 -4 -14 -14 -24 -24
-24 -10 0 -20 -9 -23 -22 -2 -13 -8 -30 -11 -40 -8 -17 19 -32 59 -33 11 0 20
-6 20 -12 0 -7 4 -13 10 -12 5 0 12 -9 17 -20 4 -12 16 -21 28 -21 12 0 18 -4
15 -10 -7 -12 12 -50 26 -50 5 0 31 -23 58 -50 45 -48 50 -51 102 -53 36 -1
67 4 94 17 22 11 96 34 164 53 67 18 143 42 166 53 24 11 51 20 59 20 8 0 51
13 95 30 85 31 141 65 141 86 0 6 7 17 15 24 12 10 15 10 15 -3 0 -9 -5 -19
-10 -22 -7 -4 -7 -12 0 -25 9 -17 12 -17 77 4 90 29 112 42 119 71 3 14 10 25
14 25 5 0 10 10 12 23 2 14 9 21 21 21 9 -1 18 6 18 15 5 52 2 68 -16 84 -20
17 -20 17 5 8 31 -11 85 11 55 22 -21 9 -25 9 -24 0 4 -22 -3 -24 -27 -8 -20
13 -39 15 -87 11 -34 -3 -57 -4 -52 -1 31 14 248 64 290 66 28 2 64 8 81 15
18 8 47 11 68 7 35 -6 36 -5 27 18 -5 14 -17 75 -26 137 -16 106 -28 134 -38
95 -4 -14 -5 -13 -6 4 0 12 3 24 8 27 12 8 -34 225 -52 243 -4 3 -7 19 -7 34
0 15 -5 31 -10 34 -6 4 -8 15 -5 26 4 10 2 19 -4 19 -5 0 -9 8 -8 18 2 37
-144 462 -159 462 -2 0 -4 -5 -4 -11z m49 -147 c-1 -15 -2 -15 -6 1 -2 9 -9
14 -15 11 -7 -4 -8 -2 -4 5 10 15 26 4 25 -17z m-119 -12 c0 -5 -4 -10 -10
-10 -5 0 -10 5 -10 10 0 6 5 10 10 10 6 0 10 -4 10 -10z m47 -43 c-2 -7 -13
-10 -23 -9 -25 5 -26 6 -18 25 5 13 10 14 26 6 10 -6 17 -16 15 -22z m83 7 c0
-8 -4 -12 -10 -9 -5 3 -10 10 -10 16 0 5 5 9 10 9 6 0 10 -7 10 -16z m-22 -32
c15 -20 16 -36 0 -26 -7 4 -8 3 -4 -5 4 -6 1 -22 -7 -34 -14 -21 -13 -23 4
-24 14 -1 19 5 20 25 l1 27 8 -29 c7 -23 5 -32 -7 -41 -15 -11 -14 -13 6 -20
19 -6 22 -13 19 -41 -3 -26 -1 -33 9 -30 18 7 16 -19 -2 -38 -19 -19 -19 -26
2 -26 13 0 14 -3 6 -11 -9 -9 -9 -16 0 -30 9 -14 9 -21 0 -30 -9 -9 -7 -18 8
-37 11 -14 16 -28 11 -31 -5 -3 -7 -23 -4 -44 4 -31 7 -37 23 -32 14 5 19 1
19 -12 0 -14 -2 -15 -9 -4 -6 9 -10 2 -13 -23 -2 -20 -4 -36 -3 -36 0 0 15 4
32 9 35 10 34 11 48 -58 5 -23 4 -31 -4 -27 -6 4 -11 14 -11 22 0 8 -6 14 -12
14 -16 0 -23 -87 -9 -104 11 -14 18 -117 8 -132 -4 -7 0 -15 9 -18 10 -4 13
-2 8 7 -5 8 -2 7 9 -2 27 -21 21 -29 -33 -40 -70 -15 -123 -14 -117 2 2 6 15
11 28 10 13 -1 18 0 11 3 -6 3 -10 10 -7 14 3 5 1 11 -5 15 -5 3 -10 1 -10 -4
0 -16 -27 -13 -33 3 -3 8 3 22 14 32 23 20 25 34 5 34 -8 0 -18 -9 -21 -20 -6
-17 -8 -18 -21 -6 -19 19 -18 30 2 22 10 -4 14 -1 11 6 -2 7 -11 12 -20 12 -9
-1 -14 2 -11 7 3 5 14 9 26 9 14 0 18 5 14 16 -3 9 -9 34 -12 56 -4 22 -13 42
-20 45 -8 3 -14 9 -14 14 0 4 6 6 13 3 7 -2 24 0 38 5 17 7 19 10 7 10 -10 1
-18 8 -18 16 0 9 -7 18 -15 21 -11 5 -11 9 -2 19 6 7 18 10 24 8 17 -7 16 2
-3 39 -9 16 -11 27 -5 24 7 -5 8 -1 5 9 -5 12 -14 14 -35 10 -18 -4 -29 -2
-29 4 0 6 15 12 33 12 17 1 24 3 15 6 -21 5 -23 14 -6 31 17 17 2 28 -17 12
-10 -8 -15 -9 -15 -1 0 6 5 11 10 11 15 0 12 26 -5 40 -12 10 -13 16 -3 27 10
13 13 12 19 -5 5 -14 14 -19 28 -15 12 3 18 10 14 20 -5 12 -7 12 -15 1 -7 -9
-8 -7 -5 10 4 16 0 22 -11 23 -14 0 -13 2 3 9 19 9 19 9 -2 16 -13 3 -23 13
-23 20 0 8 -11 20 -25 26 -26 11 -33 32 -15 43 5 3 7 0 4 -8 -3 -8 6 -18 21
-25 14 -6 25 -16 25 -21 0 -5 9 -9 20 -8 24 2 26 20 5 37 -22 18 -18 32 6 25
15 -5 19 -4 15 4 -4 6 -27 11 -51 11 -49 0 -64 13 -41 35 11 11 13 26 9 48
l-6 32 21 -19 c12 -11 22 -15 22 -9 0 5 -9 18 -19 27 -18 16 -18 19 -3 35 19
19 40 17 60 -7z m-164 -40 c-7 -4 -14 -16 -16 -27 -3 -17 -5 -15 -10 8 -4 23
-2 27 16 27 13 0 16 -3 10 -8z m65 -18 c3 -3 0 -9 -7 -16 -8 -8 -15 -8 -27 2
-22 19 -18 32 8 24 12 -3 24 -8 26 -10z m-104 -14 c3 -5 -1 -10 -9 -10 -9 0
-16 5 -16 10 0 6 4 10 9 10 6 0 13 -4 16 -10z m275 -96 c0 -8 -4 -12 -10 -9
-5 3 -10 10 -10 16 0 5 5 9 10 9 6 0 10 -7 10 -16z m-280 -33 c0 -11 4 -23 10
-26 15 -9 32 -45 21 -45 -10 0 -51 65 -51 81 0 5 5 9 10 9 6 0 10 -9 10 -19z
m-41 -23 c0 -18 -3 -26 -6 -18 -3 8 -11 18 -17 23 -8 5 -6 10 4 17 21 13 20
14 19 -22z m110 3 c8 -5 9 -11 3 -15 -13 -8 -42 3 -42 15 0 11 21 11 39 0z
m79 -9 c6 -18 -15 -14 -22 4 -4 10 -1 14 6 12 6 -2 14 -10 16 -16z m-150 -30
c6 -18 -15 -14 -22 4 -4 10 -1 14 6 12 6 -2 14 -10 16 -16z m-28 -24 c0 -5 -4
-8 -10 -8 -5 0 -10 5 -10 10 0 6 -7 10 -16 10 -8 0 -12 4 -9 10 6 10 45 -9 45
-22z m-45 -18 c3 -5 1 -10 -4 -10 -6 0 -11 5 -11 10 0 6 2 10 4 10 3 0 8 -4
11 -10z m185 0 c0 -5 -4 -10 -10 -10 -5 0 -10 5 -10 10 0 6 5 10 10 10 6 0 10
-4 10 -10z m-215 -9 c3 -5 1 -12 -5 -16 -5 -3 -10 1 -10 9 0 18 6 21 15 7z
m35 -26 c0 -8 -4 -15 -10 -15 -5 0 -10 7 -10 15 0 8 5 15 10 15 6 0 10 -7 10
-15z m90 11 c0 -2 -7 -6 -15 -10 -8 -3 -15 -1 -15 4 0 6 7 10 15 10 8 0 15 -2
15 -4z m120 -42 c-15 -17 -17 -17 -23 -1 -3 8 3 14 15 14 16 2 17 -1 8 -13z
m-30 -14 c0 -5 -4 -10 -10 -10 -5 0 -10 5 -10 10 0 6 5 10 10 10 6 0 10 -4 10
-10z m-166 -64 c-3 -8 -12 -12 -20 -9 -21 8 -17 23 6 23 13 0 18 -5 14 -14z
m-34 -36 c0 -5 -2 -10 -4 -10 -3 0 -8 5 -11 10 -3 6 -1 10 4 10 6 0 11 -4 11
-10z m-215 -42 c-4 -24 -12 -52 -18 -63 -7 -14 -7 -20 2 -23 8 -3 8 -8 3 -15
-6 -7 -13 -28 -16 -47 -7 -33 -6 -34 9 -16 8 11 15 15 15 9 0 -6 -9 -21 -19
-35 -11 -14 -22 -36 -24 -49 -2 -13 -8 -32 -12 -43 -5 -11 -3 -21 5 -26 7 -4
9 -13 6 -19 -4 -6 0 -14 8 -17 9 -3 16 -15 16 -25 0 -10 6 -19 13 -19 9 0 8
-3 -2 -9 -19 -12 3 -51 29 -51 25 0 26 -18 3 -27 -21 -7 -73 -60 -73 -73 0 -6
-21 -31 -46 -57 -41 -42 -46 -45 -42 -23 15 73 40 209 59 320 47 281 64 349
87 350 2 0 1 -19 -3 -42z m420 -68 c-3 -5 -11 -10 -16 -10 -6 0 -7 5 -4 10 3
6 11 10 16 10 6 0 7 -4 4 -10z m255 -65 c0 -2 -7 -5 -15 -9 -9 -3 -15 0 -15 9
0 9 6 12 15 9 8 -4 15 -7 15 -9z m23 -58 c-10 -18 -19 5 -14 35 l5 33 6 -30
c4 -16 5 -33 3 -38z m28 -104 c5 -13 4 -25 -1 -28 -5 -3 -12 7 -15 22 -4 15
-10 37 -14 48 -4 11 -6 27 -3 35 4 9 9 2 15 -20 5 -19 13 -45 18 -57z m29 26
c0 -5 -4 -9 -10 -9 -5 0 -10 7 -10 16 0 8 5 12 10 9 6 -3 10 -10 10 -16z
m-355 -71 c5 -18 3 -28 -4 -28 -6 0 -11 9 -11 19 0 10 -8 22 -17 25 -15 6 -15
8 -3 16 18 11 27 3 35 -32z m106 -31 c-8 -8 -38 -17 -123 -34 -16 -3 -28 -1
-28 5 0 6 9 8 19 5 13 -3 23 2 31 17 9 16 18 21 36 17 14 -2 27 -1 29 3 3 5
14 6 26 3 13 -4 17 -9 10 -16z m-230 -23 c9 -11 22 -14 43 -10 18 4 26 3 21
-3 -12 -10 -73 -26 -63 -16 8 8 -10 29 -32 38 -12 4 -12 6 1 6 9 1 22 -6 30
-15z m-236 -23 c3 -5 1 -12 -5 -16 -5 -3 -10 1 -10 9 0 18 6 21 15 7z m-725
-20 c0 -14 -18 -23 -30 -16 -6 4 -8 11 -5 16 8 12 35 12 35 0z m765 -11 c3 -5
2 -10 -4 -10 -5 0 -13 5 -16 10 -3 6 -2 10 4 10 5 0 13 -4 16 -10z m155 6 c0
-2 -7 -6 -15 -10 -8 -3 -15 -1 -15 4 0 6 7 10 15 10 8 0 15 -2 15 -4z m-930
-36 c0 -5 -2 -10 -4 -10 -3 0 -8 5 -11 10 -3 6 -1 10 4 10 6 0 11 -4 11 -10z
m930 -5 c-14 -8 -29 -14 -35 -14 -5 0 1 6 15 14 14 8 30 14 35 14 6 0 -1 -6
-15 -14z m-329 -165 c-16 -14 -22 -27 -18 -42 3 -13 0 -31 -7 -41 -12 -16 -14
-14 -21 20 -6 33 -3 40 20 60 14 13 31 23 38 23 7 -1 1 -10 -12 -20z"/>
<path d="M10055 6640 c-3 -5 1 -10 9 -10 9 0 16 5 16 10 0 6 -4 10 -9 10 -6 0
-13 -4 -16 -10z"/>
<path d="M10086 6396 c3 -9 11 -16 16 -16 13 0 5 23 -10 28 -7 2 -10 -2 -6
-12z"/>
<path d="M10110 6330 c-13 -8 -12 -10 3 -10 9 0 17 5 17 10 0 12 -1 12 -20 0z"/>
<path d="M10092 6194 c4 -21 22 -23 26 -1 2 10 -3 17 -13 17 -10 0 -15 -6 -13
-16z"/>
<path d="M10186 6168 c-13 -50 -6 -62 14 -23 24 47 24 45 6 45 -7 0 -16 -10
-20 -22z"/>
<path d="M16079 6885 c-3 -80 -8 -108 -18 -118 -6 -6 -11 -27 -11 -47 0 -20
-8 -63 -19 -96 -22 -71 -33 -135 -32 -188 1 -30 -2 -37 -13 -33 -10 4 -16 -4
-21 -29 -3 -19 -3 -39 0 -45 4 -6 0 -18 -8 -27 -9 -11 -17 -50 -20 -107 -6
-89 -6 -90 9 -50 9 22 16 63 17 90 1 28 8 56 15 64 7 7 11 20 8 27 -3 8 -1 14
4 14 5 0 12 17 15 38 11 66 27 136 37 162 7 17 6 26 -1 28 -6 2 -11 8 -11 13
0 4 7 6 15 3 16 -6 16 -4 20 106 0 30 5 64 9 75 16 40 18 51 21 91 2 22 -1 47
-6 55 -6 10 -9 2 -10 -26z"/>
<path d="M10040 6900 c-17 -11 -8 -23 14 -18 9 2 12 8 8 15 -5 8 -13 9 -22 3z"/>
<path d="M9880 6849 c0 -5 5 -7 10 -4 6 3 10 8 10 11 0 2 -4 4 -10 4 -5 0 -10
-5 -10 -11z"/>
<path d="M9820 6660 c0 -5 5 -10 10 -10 6 0 10 5 10 10 0 6 -4 10 -10 10 -5 0
-10 -4 -10 -10z"/>
<path d="M10220 6650 c0 -20 48 -189 49 -172 1 20 -30 155 -40 172 -7 13 -8
13 -9 0z"/>
<path d="M9740 6605 c0 -8 2 -15 4 -15 2 0 6 7 10 15 3 8 1 15 -4 15 -6 0 -10
-7 -10 -15z"/>
<path d="M9770 6585 c0 -8 5 -15 10 -15 6 0 10 7 10 15 0 8 -4 15 -10 15 -5 0
-10 -7 -10 -15z"/>
<path d="M10271 6444 c0 -11 3 -14 6 -6 3 7 2 16 -1 19 -3 4 -6 -2 -5 -13z"/>
<path d="M10333 5842 c10 -10 17 -24 17 -30 0 -20 18 -14 25 8 9 27 -1 40 -32
40 -25 0 -25 -1 -10 -18z"/>
<path d="M10275 5840 c-3 -5 1 -10 9 -10 9 0 16 5 16 10 0 6 -4 10 -9 10 -6 0
-13 -4 -16 -10z"/>
<path d="M10051 5806 c2 -2 20 -6 39 -10 25 -4 31 -3 20 4 -14 9 -69 15 -59 6z"/>
<path d="M10366 5735 c-5 -15 -9 -16 -15 -6 -7 10 -10 10 -16 1 -7 -11 10 -29
28 -30 10 0 20 26 15 42 -3 7 -7 5 -12 -7z"/>
<path d="M10077 5719 c7 -7 15 -10 18 -7 3 3 -2 9 -12 12 -14 6 -15 5 -6 -5z"/>
<path d="M8680 5705 c0 -8 5 -15 10 -15 6 0 10 7 10 15 0 8 -4 15 -10 15 -5 0
-10 -7 -10 -15z"/>
<path d="M10092 5679 c-7 -11 -11 -24 -8 -27 10 -9 28 15 24 32 -2 14 -5 13
-16 -5z"/>
<path d="M10323 5678 c-2 -18 0 -20 7 -8 12 18 13 30 2 30 -4 0 -9 -10 -9 -22z"/>
<path d="M10357 5683 c-11 -10 -8 -30 6 -45 17 -16 37 -74 30 -82 -13 -13 -21
-4 -28 30 -5 27 -9 34 -17 26 -8 -8 -8 -18 0 -37 16 -34 15 -35 -9 -35 -16 0
-19 4 -14 20 5 14 2 20 -10 20 -13 0 -16 -8 -13 -37 2 -32 0 -38 -18 -41 -12
-2 -26 -14 -32 -28 -7 -13 -16 -24 -22 -24 -5 0 -10 -4 -10 -9 0 -11 102 -51
131 -51 11 0 32 -11 47 -25 l27 -25 7 32 c7 33 -11 170 -22 163 -3 -2 -6 19
-7 47 0 28 -6 55 -12 61 -6 6 -11 19 -11 29 0 18 -11 24 -23 11z"/>
<path d="M10130 5660 c0 -5 9 -10 21 -10 11 0 17 5 14 10 -3 6 -13 10 -21 10
-8 0 -14 -4 -14 -10z"/>
<path d="M10280 5660 c0 -5 5 -10 11 -10 5 0 7 5 4 10 -3 6 -8 10 -11 10 -2 0
-4 -4 -4 -10z"/>
<path d="M10312 5615 c-11 -12 -10 -15 3 -15 8 0 15 7 15 15 0 18 -2 18 -18 0z"/>
<path d="M10112 5612 c-6 -2 -12 -20 -12 -39 0 -26 -4 -34 -14 -30 -8 3 -20 0
-26 -8 -13 -16 3 -24 37 -17 19 4 23 11 23 44 0 35 2 39 15 28 18 -15 20 -4 2
14 -7 7 -18 11 -25 8z"/>
<path d="M10180 5605 c0 -8 5 -15 10 -15 6 0 10 7 10 15 0 8 -4 15 -10 15 -5
0 -10 -7 -10 -15z"/>
<path d="M10081 5594 c0 -11 3 -14 6 -6 3 7 2 16 -1 19 -3 4 -6 -2 -5 -13z"/>
<path d="M9799 5383 c-36 -9 -50 -125 -35 -285 6 -64 12 -81 34 -103 26 -26
26 -26 4 -32 -12 -3 -22 -10 -22 -15 0 -5 5 -6 10 -3 6 3 10 -1 10 -10 0 -9
-4 -14 -9 -11 -5 3 -9 -15 -8 -42 1 -84 -2 -102 -18 -102 -10 0 -15 -10 -16
-27 0 -16 -4 -37 -9 -48 -13 -32 -20 32 -18 170 2 213 -14 475 -29 491 -21 21
-107 18 -154 -6 -33 -16 -44 -17 -61 -7 -16 9 -22 9 -25 0 -3 -7 -11 -13 -19
-13 -8 0 -31 -10 -52 -23 -20 -13 -77 -42 -127 -66 -49 -23 -97 -52 -106 -64
-21 -29 -33 -67 -20 -67 15 0 51 -65 51 -92 0 -19 8 -29 29 -37 15 -7 34 -23
41 -37 8 -13 19 -24 26 -24 6 0 14 -7 18 -15 3 -8 14 -15 26 -15 11 0 25 -9
32 -20 7 -11 23 -20 36 -20 13 0 37 -7 55 -16 17 -9 45 -17 62 -18 48 -2 59
-13 41 -42 -9 -13 -16 -31 -16 -40 0 -16 -36 -73 -54 -86 -5 -3 -11 -15 -12
-24 -2 -10 -10 -24 -18 -30 -9 -6 -16 -16 -16 -23 0 -16 -48 -91 -59 -91 -5 0
-11 -9 -14 -20 -3 -12 -14 -20 -26 -20 -12 0 -21 -5 -21 -11 0 -5 -13 -15 -29
-20 -16 -6 -42 -27 -58 -47 -53 -67 -54 -65 31 -60 l78 5 -4 -29 c-5 -32 8
-47 37 -44 30 4 85 27 85 36 0 8 104 105 241 224 64 57 72 70 61 109 -5 18 -7
50 -3 70 5 29 9 35 21 27 10 -6 12 -12 4 -20 -11 -11 -7 -70 5 -70 3 0 36 27
71 61 95 89 110 99 142 99 38 0 42 -15 29 -102 -12 -78 -16 -167 -7 -175 7 -8
146 37 186 59 19 12 66 27 104 35 38 8 78 21 90 28 12 7 47 18 79 24 79 14 95
25 90 56 -4 19 -11 25 -32 25 -15 0 -32 -5 -38 -11 -7 -7 -13 -8 -17 0 -4 6 7
25 24 42 36 38 37 48 9 108 -32 72 -35 76 -55 80 -23 4 -34 19 -34 47 0 25
-28 84 -40 84 -4 0 -11 8 -14 18 -19 53 -73 112 -102 112 -21 0 -43 -29 -44
-57 0 -12 -4 -25 -10 -28 -5 -3 -10 -19 -10 -34 0 -37 -10 -44 -32 -25 -14 13
-16 26 -12 55 4 26 3 39 -5 39 -6 0 -11 7 -11 15 0 8 6 15 13 15 9 0 9 2 -1 9
-8 4 -13 10 -11 12 5 8 -33 77 -49 92 -18 15 -59 28 -102 30 -14 1 -34 12 -45
25 -16 19 -32 24 -75 27 -30 1 -62 0 -71 -2z m438 -245 c-3 -8 -6 -5 -6 6 -1
11 2 17 5 13 3 -3 4 -12 1 -19z"/>
<path d="M10442 5355 c0 -16 2 -22 5 -12 2 9 2 23 0 30 -3 6 -5 -1 -5 -18z"/>
<path d="M8227 5215 c-9 -7 -14 -15 -10 -18 3 -4 -1 -15 -9 -24 -21 -24 -34
-194 -16 -222 8 -14 9 -23 1 -33 -6 -7 -14 -34 -18 -60 -4 -27 -12 -48 -17
-48 -5 0 -7 -4 -4 -9 3 -5 -3 -11 -14 -14 -11 -3 -20 -10 -20 -16 0 -15 20 -5
128 66 45 30 83 60 84 66 4 37 3 67 -4 67 -13 0 -9 28 5 33 8 3 3 14 -16 32
-27 25 -28 31 -26 103 2 73 1 76 -23 83 -14 3 -32 1 -41 -6z"/>
<path d="M7380 5090 c0 -6 7 -10 15 -10 8 0 15 2 15 4 0 2 -7 6 -15 10 -8 3
-15 1 -15 -4z"/>
<path d="M16683 4945 c0 -27 2 -38 4 -22 2 15 2 37 0 50 -2 12 -4 0 -4 -28z"/>
<path d="M8304 4706 c-3 -8 -12 -12 -19 -10 -7 3 -16 1 -20 -5 -3 -6 -22 -11
-41 -11 -29 0 -84 -27 -133 -66 -2 -2 2 -10 9 -19 9 -11 17 -12 30 -5 24 13
80 13 80 0 0 -5 -12 -11 -27 -11 -27 -2 -47 -4 -68 -8 -22 -4 31 -31 61 -31
52 0 61 -31 10 -34 -14 0 -26 -5 -26 -10 0 -5 -7 -3 -15 4 -24 20 -19 -18 10
-84 30 -69 31 -76 5 -48 -39 42 -51 27 -55 -66 -2 -37 -5 -78 -8 -92 -3 -14
-8 -62 -10 -107 -4 -80 -3 -83 19 -83 36 0 194 71 209 94 26 40 75 201 85 280
10 79 10 80 -20 126 -17 26 -30 59 -30 73 0 14 -10 36 -22 47 -13 12 -17 20
-9 18 10 -2 15 7 17 30 2 33 -21 46 -32 18z"/>
<path d="M9932 4609 c-12 -11 -22 -23 -22 -27 0 -5 -13 -22 -30 -39 -34 -35
-61 -83 -54 -95 8 -13 53 -9 89 8 38 18 55 55 55 120 0 51 -10 60 -38 33z"/>
<path d="M10444 4575 c-10 -8 -30 -15 -43 -15 -13 0 -50 -13 -83 -30 -32 -16
-67 -30 -78 -30 -22 0 -151 -44 -198 -68 -37 -19 -76 -80 -86 -136 -8 -40 -12
-42 -39 -21 -11 7 -25 11 -31 9 -7 -3 -24 6 -37 20 -13 14 -31 26 -40 26 -21
0 -64 -38 -65 -58 -1 -9 -3 -21 -4 -27 -1 -5 -2 -25 -1 -42 1 -31 4 -33 35
-33 37 0 51 -23 39 -68 -5 -19 1 -25 37 -39 40 -16 42 -19 37 -50 -5 -29 0
-40 30 -73 19 -22 39 -38 43 -35 15 9 26 71 29 159 0 27 4 46 7 43 4 -4 6 -38
5 -77 l-2 -71 28 15 c38 19 76 62 101 112 11 22 28 47 37 54 9 8 42 48 73 90
31 41 79 102 107 135 28 33 72 87 97 120 25 34 53 67 62 74 9 7 16 17 16 22 0
14 -55 10 -76 -6z m-517 -502 c-3 -10 -5 -4 -5 12 0 17 2 24 5 18 2 -7 2 -21
0 -30z"/>
<path d="M10600 4512 c0 -7 -4 -10 -10 -7 -5 3 -10 1 -10 -5 0 -13 -67 -93
-157 -187 -35 -36 -63 -70 -63 -75 0 -14 -51 -90 -86 -128 -39 -43 -124 -165
-124 -179 0 -5 -12 -24 -27 -41 -21 -26 -24 -33 -12 -41 22 -13 26 -11 50 24
12 17 42 53 66 79 24 26 43 51 43 57 0 5 35 45 78 88 42 44 123 129 179 190
l103 111 -6 49 c-7 47 -23 93 -24 65z"/>
<path d="M11410 4454 c0 -18 38 -90 54 -104 9 -7 16 -20 16 -29 0 -10 12 -33
26 -52 14 -19 40 -62 56 -96 17 -35 35 -63 40 -63 28 0 -51 167 -99 214 -18
16 -36 45 -39 62 -5 30 -54 90 -54 68z"/>
<path d="M9754 4429 c-15 -17 -16 -22 -4 -29 16 -10 40 5 40 26 0 23 -17 24
-36 3z"/>
<path d="M6445 4400 c-3 -5 -2 -10 4 -10 5 0 13 5 16 10 3 6 2 10 -4 10 -5 0
-13 -4 -16 -10z"/>
<path d="M8586 4343 c-21 -20 -48 -57 -59 -82 -11 -26 -26 -54 -35 -63 -17
-20 -11 -22 38 -18 28 2 95 34 105 50 3 5 15 10 26 10 18 0 24 11 19 35 -1 6
-3 19 -5 30 -4 36 -24 75 -37 75 -7 0 -31 -17 -52 -37z"/>
<path d="M10570 4254 c-41 -43 -93 -97 -115 -120 -58 -61 -115 -131 -115 -142
0 -5 -15 -24 -34 -43 -40 -40 -120 -164 -142 -218 -15 -38 -15 -39 14 -70 l29
-32 39 17 c74 32 89 42 113 78 13 20 31 36 39 36 8 0 42 30 76 67 33 37 96
105 139 150 42 46 77 87 77 91 0 4 -7 45 -16 92 -8 47 -18 105 -22 129 l-7 44
-75 -79z"/>
<path d="M15270 4259 c0 -5 5 -7 10 -4 6 3 10 8 10 11 0 2 -4 4 -10 4 -5 0
-10 -5 -10 -11z"/>
<path d="M15390 4195 c27 -29 37 -27 20 4 -6 12 -18 21 -27 21 -13 0 -12 -5 7
-25z"/>
<path d="M9601 4186 c-10 -12 -9 -14 6 -11 10 2 24 4 31 4 6 1 12 6 12 11 0
15 -36 12 -49 -4z"/>
<path d="M10705 4125 c8 -48 13 -57 26 -49 11 7 2 41 -18 69 -14 18 -14 17 -8
-20z"/>
<path d="M8495 4115 c-39 -14 -95 -67 -95 -91 0 -6 -10 -31 -23 -55 -50 -96
-84 -214 -67 -234 9 -11 3 -23 -29 -58 -23 -24 -41 -49 -41 -55 0 -22 19 -22
58 0 43 25 182 135 182 145 0 3 -8 11 -17 18 -16 12 -14 16 22 49 22 20 50 40
64 43 23 6 208 107 225 123 4 4 -5 22 -21 39 -17 17 -32 28 -36 25 -3 -3 -8 4
-12 15 -4 15 -15 21 -36 21 -16 0 -29 -4 -29 -10 0 -5 -5 -10 -11 -10 -5 0 -7
5 -4 10 3 6 -4 10 -15 10 -16 0 -20 5 -16 15 7 20 -43 20 -99 0z m118 -39 c3
-8 -1 -17 -9 -20 -9 -4 -14 1 -14 14 0 23 15 27 23 6z"/>
<path d="M14288 4053 c7 -3 16 -2 19 1 4 3 -2 6 -13 5 -11 0 -14 -3 -6 -6z"/>
<path d="M10751 4019 c-21 -8 -23 -14 -19 -59 3 -28 13 -59 22 -69 12 -14 15
-28 10 -58 -5 -36 -4 -41 17 -46 13 -4 36 -7 52 -7 35 0 34 -11 -3 -32 -38
-21 -39 -50 -3 -86 21 -20 28 -23 31 -12 3 8 12 20 20 26 20 15 8 136 -19 202
-59 138 -71 155 -108 141z"/>
<path d="M14390 4018 c14 -7 31 -18 38 -25 7 -7 19 -13 25 -13 22 0 -28 39
-58 45 -30 5 -30 5 -5 -7z"/>
<path d="M8180 3995 c-100 -46 -120 -59 -122 -80 -3 -39 3 -68 18 -82 18 -18
18 -33 0 -58 -13 -19 -21 -103 -17 -180 1 -25 3 -27 12 -12 5 9 16 17 23 17
30 0 67 60 106 174 23 66 47 131 54 145 7 14 16 43 19 64 5 33 4 37 -16 37
-12 0 -47 -12 -77 -25z"/>
<path d="M14235 4010 c3 -5 8 -10 11 -10 2 0 4 5 4 10 0 6 -5 10 -11 10 -5 0
-7 -4 -4 -10z"/>
<path d="M11640 3996 c0 -14 21 -58 26 -54 8 8 -7 58 -17 58 -5 0 -9 -2 -9 -4z"/>
<path d="M9102 3937 c-36 -15 -78 -47 -132 -100 -81 -79 -93 -97 -65 -97 17 0
20 -16 5 -25 -5 -3 -10 -2 -10 3 0 6 -9 8 -19 5 -16 -4 -18 -10 -11 -27 5 -13
4 -29 -2 -40 -6 -10 -11 -32 -12 -50 -1 -20 -20 -54 -53 -98 -28 -36 -54 -80
-58 -97 -6 -30 -25 -53 -25 -32 0 6 -9 11 -20 11 -25 0 -25 11 -1 60 12 25 15
42 9 48 -10 10 17 62 32 62 12 0 30 59 30 99 0 20 -4 31 -8 25 -4 -6 -21 -18
-37 -27 -20 -10 -42 -37 -65 -81 -18 -36 -38 -66 -42 -66 -5 0 -17 -19 -27
-42 -10 -24 -33 -74 -50 -112 -18 -37 -30 -71 -26 -74 3 -3 24 13 48 35 43 42
99 63 112 43 4 -6 -10 -45 -29 -87 -25 -51 -33 -79 -26 -83 6 -4 44 -8 85 -8
56 -1 74 2 79 13 3 8 16 15 30 15 14 0 36 4 50 10 29 11 80 85 72 105 -5 15
71 135 85 135 5 0 9 6 9 14 0 7 11 22 25 32 14 10 25 24 25 31 0 7 5 13 10 13
6 0 10 5 10 10 0 16 -30 11 -71 -12 -24 -13 -39 -29 -39 -41 0 -22 -34 -69
-44 -60 -14 14 -5 66 15 81 11 10 21 32 23 52 2 19 17 58 34 85 17 28 42 73
57 100 38 73 50 93 73 118 11 12 25 34 31 50 13 34 -2 35 -77 4z"/>
<path d="M10616 3862 c-43 -39 -85 -81 -93 -92 -13 -18 -12 -20 7 -20 33 0
123 45 148 75 18 20 22 36 20 68 l-3 41 -79 -72z"/>
<path d="M14403 3900 c14 -11 29 -20 34 -20 10 1 -39 39 -51 40 -5 0 3 -9 17
-20z"/>
<path d="M15837 3800 c-14 -63 -24 -191 -10 -137 2 9 8 17 13 17 12 0 22 75
18 140 l-3 55 -18 -75z"/>
<path d="M15182 3750 c0 -19 2 -27 5 -17 2 9 2 25 0 35 -3 9 -5 1 -5 -18z"/>
<path d="M9508 3698 c-21 -5 -48 -21 -60 -35 -13 -13 -42 -43 -66 -66 -24 -23
-65 -73 -90 -110 -44 -65 -58 -86 -107 -166 -11 -18 -34 -52 -51 -74 -17 -23
-41 -60 -53 -82 -12 -22 -33 -58 -46 -80 -38 -62 -30 -75 16 -27 39 40 59 52
59 33 0 -5 -13 -22 -28 -37 -16 -16 -68 -75 -115 -131 -70 -82 -93 -118 -119
-182 -17 -45 -28 -84 -25 -87 8 -8 138 34 157 51 8 7 38 24 65 38 61 30 89 61
141 152 66 117 114 205 114 212 0 5 11 25 26 44 14 19 34 52 45 74 10 22 34
66 52 98 17 31 47 85 66 119 19 35 48 84 65 110 59 89 86 136 86 147 0 14 -80
13 -132 -1z"/>
<path d="M15461 3683 c0 -12 -5 -25 -11 -28 -11 -7 -13 -77 -4 -112 8 -30 22
-29 36 2 9 19 9 28 0 37 -15 15 -16 58 -2 58 6 0 10 5 10 11 0 5 -4 8 -9 4 -5
-3 -12 7 -14 22 -3 21 -4 23 -6 6z"/>
<path d="M10720 3659 c-13 -24 -8 -34 15 -26 16 7 21 47 5 47 -5 0 -14 -9 -20
-21z"/>
<path d="M10776 3664 c-6 -15 15 -29 34 -22 6 2 2 11 -9 20 -17 14 -20 14 -25
2z"/>
<path d="M10538 3644 c-27 -13 -48 -28 -48 -32 0 -5 -24 -14 -52 -22 -44 -11
-64 -24 -117 -78 -41 -42 -59 -67 -52 -72 9 -5 9 -18 1 -51 -13 -52 -5 -78 39
-129 34 -39 39 -61 16 -80 -8 -7 -15 -25 -15 -40 0 -15 -7 -33 -15 -40 -12
-10 -20 -7 -44 19 -16 17 -42 51 -57 75 -15 24 -33 42 -40 39 -7 -2 -15 5 -19
16 -16 51 -55 11 -75 -76 -7 -29 -15 -53 -20 -53 -16 0 -58 -52 -63 -79 -3
-15 -17 -41 -30 -57 -39 -48 -52 -91 -37 -119 11 -20 10 -28 -8 -57 -37 -58
-92 -179 -86 -189 3 -5 10 -6 16 -3 6 4 9 3 6 -2 -22 -48 -34 -64 -57 -74 -30
-12 -119 -147 -128 -194 l-6 -30 45 27 c24 14 69 39 99 54 30 16 99 64 153
108 54 44 114 92 134 107 68 50 67 29 -2 -39 -63 -64 -65 -68 -41 -71 37 -5
31 -23 -30 -87 -31 -31 -68 -78 -82 -104 -37 -64 -97 -152 -121 -177 -11 -12
-32 -44 -46 -72 -14 -28 -30 -53 -36 -57 -21 -13 -9 31 20 74 42 62 37 72 -12
24 -63 -59 -107 -69 -88 -19 8 21 6 23 -13 18 -27 -6 -104 -61 -138 -99 -42
-46 -96 -152 -126 -246 -9 -30 15 -19 72 33 30 28 58 50 60 50 3 0 -2 -14 -11
-31 -22 -43 -7 -52 45 -29 23 11 47 17 52 14 5 -3 9 6 9 19 0 36 91 169 105
155 5 -5 -50 -112 -77 -151 -19 -26 -19 -29 -4 -46 33 -36 21 -63 -46 -101
-49 -28 -64 -42 -74 -73 -7 -21 -22 -51 -34 -66 -32 -46 -27 -50 59 -44 89 6
111 -6 59 -33 -18 -9 -35 -20 -38 -24 -3 -4 -30 -18 -60 -31 -69 -29 -120 -61
-120 -75 0 -31 95 -40 173 -18 14 5 17 0 15 -28 -3 -33 -3 -33 44 -36 45 -3
48 -1 72 36 13 21 35 46 49 55 24 16 87 127 87 154 0 19 -62 17 -105 -4 -27
-13 -38 -14 -47 -5 -16 16 -3 27 57 45 127 39 127 39 158 113 16 38 28 84 28
103 -2 27 5 39 36 66 l38 33 0 98 c0 91 2 102 26 134 43 58 91 149 96 183 3
17 13 47 23 67 9 19 20 52 24 72 4 20 26 76 50 125 24 48 56 113 69 143 14 30
35 71 46 90 11 19 38 75 61 124 22 50 58 114 80 143 22 28 40 60 40 69 0 9 21
58 46 107 25 50 43 99 41 108 -5 20 36 178 59 227 15 31 14 35 -2 53 -9 10
-13 19 -8 19 5 0 15 9 21 20 10 15 10 22 -3 35 -21 21 -41 18 -96 -11z m-338
-807 c0 -12 -78 -75 -105 -86 -5 -2 -25 -17 -43 -32 -31 -28 -72 -39 -72 -20
0 12 58 61 73 61 7 1 28 14 47 30 19 17 38 30 43 30 5 0 15 7 23 15 19 18 34
19 34 2z"/>
<path d="M8507 3622 c-9 -10 -26 -18 -37 -19 -22 -2 -54 -23 -46 -30 7 -7 116
47 116 58 0 15 -16 10 -33 -9z"/>
<path d="M10694 3585 c-28 -30 -32 -40 -27 -69 3 -20 -2 -57 -12 -89 -9 -30
-15 -63 -13 -73 4 -16 8 -13 24 15 10 18 34 54 52 80 17 25 35 53 39 61 4 8 9
17 13 20 3 3 16 18 28 34 28 36 15 56 -36 56 -27 0 -42 -8 -68 -35z"/>
<path d="M8111 3566 c-52 -25 -65 -46 -27 -46 33 0 76 20 76 36 0 7 5 14 12
16 8 3 7 6 -3 10 -7 3 -34 -4 -58 -16z"/>
<path d="M9637 3552 c-15 -15 -27 -32 -27 -36 0 -5 -16 -31 -35 -57 -19 -27
-35 -52 -35 -55 0 -3 -13 -23 -29 -43 -15 -20 -34 -48 -42 -63 -8 -15 -40 -66
-72 -113 -32 -48 -61 -94 -64 -103 -4 -10 -19 -33 -35 -53 -15 -20 -28 -45
-28 -56 0 -10 -13 -40 -30 -66 -16 -26 -30 -51 -30 -56 0 -4 -12 -25 -26 -46
-14 -21 -28 -48 -30 -59 -2 -11 -9 -23 -15 -27 -11 -7 -23 -28 -92 -164 -16
-33 -32 -55 -34 -48 -4 11 8 40 48 117 11 21 18 40 15 43 -22 23 -121 -55
-231 -181 -27 -32 -55 -66 -61 -77 -5 -11 -24 -29 -42 -39 -33 -21 -87 -113
-78 -135 3 -8 -2 -19 -11 -26 -23 -20 -35 -59 -22 -75 6 -7 8 -22 4 -33 -6
-19 -1 -18 59 9 36 17 77 30 91 30 33 0 75 42 75 75 0 28 39 52 52 32 4 -8 14
-5 27 7 11 10 27 16 35 13 9 -4 19 1 24 9 13 23 183 194 193 194 12 0 11 -7
-3 -33 -10 -20 -10 -21 5 -8 10 7 17 9 17 4 0 -13 -58 -93 -67 -93 -4 0 -2 5
5 12 7 7 12 18 12 26 0 12 -3 12 -15 2 -8 -7 -15 -21 -15 -32 0 -10 -4 -17 -9
-14 -5 3 -25 -12 -45 -34 -20 -22 -36 -38 -36 -35 0 3 -13 -10 -30 -28 -31
-36 -39 -54 -17 -40 31 20 79 29 128 25 80 -6 119 7 144 49 50 87 62 105 98
143 48 51 70 91 62 115 -7 22 13 79 69 195 41 85 63 166 44 166 -5 0 -35 -26
-66 -57 -53 -54 -57 -56 -60 -34 -2 13 3 40 11 60 9 20 28 69 43 110 16 42 37
79 50 88 29 19 94 146 94 184 0 19 9 38 25 53 31 29 47 70 33 84 -8 8 -6 20 5
44 25 53 27 158 4 158 -7 0 -25 -13 -40 -28z"/>
<path d="M8349 3516 c-84 -22 -159 -77 -159 -116 0 -22 44 -26 138 -13 54 7
107 12 120 13 28 0 29 -18 1 -22 -15 -2 -27 -18 -41 -56 -17 -45 -22 -51 -35
-40 -11 9 -14 24 -10 51 l5 39 -36 -6 c-20 -3 -50 -6 -65 -6 -32 0 -55 -39
-31 -53 18 -10 173 -57 190 -57 15 0 144 219 144 246 0 4 -27 4 -60 0 -56 -7
-60 -6 -60 14 0 24 -29 26 -101 6z"/>
<path d="M15800 3419 c0 -5 5 -7 10 -4 6 3 10 8 10 11 0 2 -4 4 -10 4 -5 0
-10 -5 -10 -11z"/>
<path d="M9972 3404 c-25 -17 -30 -64 -7 -64 25 0 57 39 50 61 -8 23 -14 24
-43 3z"/>
<path d="M10810 3403 c0 -4 -11 -20 -24 -34 -41 -45 -48 -65 -36 -112 17 -65
18 -67 36 -60 14 5 15 16 10 73 l-7 68 38 9 c31 7 38 13 38 33 0 20 -6 26 -27
28 -16 2 -28 0 -28 -5z"/>
<path d="M15858 3394 c-5 -4 -8 -16 -8 -26 0 -10 -4 -18 -9 -18 -5 0 -11 -9
-14 -20 -6 -24 15 -27 32 -6 13 16 11 83 -1 70z"/>
<path d="M15754 3327 c-5 -15 2 -66 10 -75 9 -9 23 40 18 65 -5 25 -20 31 -28
10z"/>
<path d="M10620 3315 c0 -8 5 -15 10 -15 6 0 10 7 10 15 0 8 -4 15 -10 15 -5
0 -10 -7 -10 -15z"/>
<path d="M15848 3265 c-8 -18 -8 -29 -1 -36 17 -17 33 -1 33 32 0 36 -16 38
-32 4z"/>
<path d="M15202 3250 c0 -14 2 -19 5 -12 2 6 2 18 0 25 -3 6 -5 1 -5 -13z"/>
<path d="M15766 3221 c-4 -7 -5 -15 -2 -18 9 -9 19 4 14 18 -4 11 -6 11 -12 0z"/>
<path d="M15844 3184 c3 -9 6 -21 6 -27 0 -8 3 -8 11 0 13 13 5 43 -12 43 -6
0 -8 -7 -5 -16z"/>
<path d="M9808 3148 c-14 -18 -43 -69 -66 -113 -22 -44 -59 -112 -81 -150 -23
-38 -41 -73 -41 -76 0 -4 -18 -38 -40 -75 -22 -38 -45 -84 -51 -104 -18 -59
-32 -83 -82 -139 -43 -48 -47 -57 -41 -87 4 -24 2 -40 -9 -52 -8 -9 -24 -36
-36 -59 -12 -24 -26 -43 -31 -43 -23 0 -7 -19 24 -30 46 -15 121 14 173 66 21
22 53 50 71 64 26 20 34 36 42 79 10 53 41 102 63 98 6 -1 16 18 24 43 7 25
19 59 27 75 8 17 20 44 27 60 8 17 25 46 37 65 19 27 23 44 19 77 -3 25 1 50
8 60 23 33 27 98 11 183 -9 46 -18 85 -20 87 -2 3 -15 -11 -28 -29z"/>
<path d="M8553 3111 c-25 -41 -30 -58 -26 -89 l5 -38 44 10 c24 6 44 16 44 24
0 7 10 32 22 55 16 30 23 37 26 25 7 -35 67 -7 60 28 -2 14 -12 19 -38 20 -19
0 -51 4 -70 8 -34 6 -36 5 -67 -43z"/>
<path d="M10787 3148 c-3 -8 0 -37 6 -64 l12 -49 3 47 c3 51 -10 93 -21 66z"/>
<path d="M15825 3143 c-4 -13 -14 -23 -21 -23 -8 0 -14 -10 -14 -25 0 -16 6
-25 15 -25 9 0 15 9 15 24 0 13 5 26 11 28 6 2 9 13 6 23 -5 19 -5 19 -12 -2z"/>
<path d="M8901 3066 c-13 -8 -37 -30 -52 -51 -16 -21 -45 -55 -64 -77 -20 -21
-41 -52 -47 -68 -5 -17 -29 -49 -52 -72 -60 -60 -64 -76 -21 -84 57 -10 87 3
142 65 56 63 103 155 103 203 0 16 5 38 11 49 5 11 9 26 7 34 -2 11 -7 11 -27
1z"/>
<path d="M15886 3064 c-9 -24 -7 -54 4 -54 6 0 10 16 10 35 0 38 -4 44 -14 19z"/>
<path d="M8568 2968 c-36 -9 -38 -12 -38 -49 0 -35 3 -39 25 -39 19 0 25 5 25
20 0 12 7 34 15 50 9 17 14 30 13 29 -2 -1 -20 -6 -40 -11z"/>
<path d="M8610 2823 c0 -22 2 -25 10 -13 13 20 13 40 0 40 -5 0 -10 -12 -10
-27z"/>
<path d="M10492 2813 c-17 -25 -131 -278 -163 -363 -14 -39 -28 -52 -47 -45
-7 3 -16 -3 -19 -13 -4 -9 -15 -28 -24 -42 -10 -14 -21 -36 -24 -50 -6 -24 -4
-26 36 -25 34 0 43 -4 52 -22 8 -18 5 -29 -14 -58 -13 -19 -32 -38 -41 -41
-10 -3 -18 -9 -18 -14 0 -18 -47 -58 -95 -81 -46 -22 -51 -29 -70 -84 -11 -33
-31 -74 -44 -91 -13 -17 -21 -40 -19 -50 3 -16 11 -19 54 -16 29 2 61 -3 77
-11 24 -12 38 -12 115 4 98 21 148 24 157 9 15 -24 86 -1 103 34 19 38 21 61
8 79 -11 14 -19 15 -38 8 -32 -12 -48 2 -48 41 0 48 27 88 73 107 53 23 109
74 86 79 -8 1 -37 -6 -63 -18 -58 -24 -55 -25 -49 1 3 12 27 36 52 54 49 35
118 136 106 155 -4 6 1 20 11 31 13 15 15 24 7 42 -5 12 -11 42 -12 67 -1 24
-9 52 -17 61 -9 10 -28 50 -44 91 -16 40 -29 67 -30 60 0 -20 -23 -9 -26 14
-2 10 -4 40 -5 67 -1 26 -3 47 -5 47 -1 0 -11 -12 -22 -27z"/>
<path d="M8753 2663 c-3 -10 -8 -22 -10 -28 -3 -5 3 -1 11 9 16 20 21 36 11
36 -3 0 -8 -8 -12 -17z"/>
<path d="M8654 2656 c-15 -11 -16 -17 -7 -27 15 -15 39 -6 53 20 9 18 8 21 -8
21 -10 0 -27 -6 -38 -14z"/>
<path d="M8825 2601 c-18 -4 -31 -14 -33 -24 -4 -17 -2 -17 26 -3 17 9 34 20
37 26 3 5 5 9 3 9 -2 -1 -16 -4 -33 -8z"/>
<path d="M8663 2510 c-18 -28 -33 -60 -33 -72 l0 -23 20 25 c17 21 60 105 60
116 0 15 -20 -5 -47 -46z"/>
<path d="M8593 2518 c-14 -19 -24 -48 -15 -48 8 0 34 52 28 57 -2 2 -8 -2 -13
-9z"/>
<path d="M10817 2465 c-4 -11 -14 -33 -23 -48 -8 -15 -13 -35 -11 -45 5 -22
50 72 45 96 -3 15 -5 14 -11 -3z"/>
<path d="M15562 2375 c0 -27 3 -59 8 -70 8 -18 9 -18 9 5 0 14 -4 45 -8 70
l-8 45 -1 -50z"/>
<path d="M9784 2282 c-20 -17 -42 -62 -30 -62 8 0 46 42 57 63 12 22 0 21 -27
-1z"/>
<path d="M10182 2238 c-14 -14 -16 -42 -3 -34 7 5 23 46 17 46 -1 0 -7 -5 -14
-12z"/>
<path d="M9595 2229 c-11 -17 1 -21 15 -4 8 9 8 15 2 15 -6 0 -14 -5 -17 -11z"/>
<path d="M9061 2160 c-24 -11 -51 -20 -61 -20 -10 0 -23 -7 -31 -16 -8 -9 -21
-13 -35 -10 -24 6 -38 -13 -28 -39 9 -22 20 -19 43 12 18 22 25 25 45 15 13
-6 27 -8 31 -4 4 4 10 7 13 7 4 0 26 14 49 30 67 47 53 60 -26 25z"/>
<path d="M9398 2160 c-44 -8 -74 -32 -81 -63 -2 -12 -8 -30 -12 -39 -6 -15 -2
-18 19 -18 15 0 39 8 54 17 53 33 122 95 116 104 -6 10 -42 10 -96 -1z"/>
<path d="M9132 2108 c-50 -45 -82 -84 -82 -103 0 -3 9 -5 20 -5 25 0 85 53
116 102 47 75 28 77 -54 6z"/>
<path d="M10905 2119 c-4 -5 -17 -14 -30 -19 -24 -9 -139 -140 -130 -148 7 -7
58 34 105 85 72 78 84 93 72 93 -6 0 -14 -5 -17 -11z"/>
<path d="M8718 2064 c-69 -36 -80 -94 -18 -94 46 0 61 10 83 59 12 25 23 49
25 54 8 15 -45 4 -90 -19z"/>
<path d="M9313 2004 c3 -6 -26 -26 -72 -48 -74 -35 -80 -39 -96 -84 -19 -53
-20 -65 -12 -104 4 -21 0 -31 -15 -42 -22 -16 -51 -66 -43 -75 3 -3 24 -4 46
-4 43 2 79 21 115 59 13 14 29 21 41 18 24 -7 83 56 83 88 -1 21 -3 20 -31
-12 l-30 -35 5 48 5 47 -37 0 -37 0 35 33 c19 18 43 46 52 63 17 30 17 33 1
45 -9 8 -14 9 -10 3z"/>
<path d="M8670 1944 c0 -17 17 -36 24 -26 3 5 -1 15 -9 22 -8 7 -15 9 -15 4z"/>
<path d="M10643 1940 c-26 -11 -30 -28 -9 -36 19 -7 56 13 56 31 0 17 -14 18
-47 5z"/>
<path d="M10518 1763 c-13 -16 -35 -45 -48 -66 -30 -51 -62 -72 -89 -57 -24
13 -27 46 -6 74 20 27 19 56 -2 56 -9 0 -36 -20 -60 -45 -38 -40 -42 -48 -32
-67 17 -32 -2 -61 -63 -92 -39 -20 -61 -39 -81 -72 -15 -24 -35 -48 -44 -52
-10 -4 -19 -18 -21 -31 -3 -33 -18 -49 -71 -76 -31 -16 -64 -47 -101 -95 -32
-41 -70 -79 -90 -88 -29 -14 -36 -24 -43 -62 -5 -25 -13 -50 -19 -57 -5 -6
-12 -36 -15 -67 -5 -52 -4 -55 16 -53 11 1 21 5 21 9 0 4 4 8 9 8 6 0 11 -21
13 -47 4 -59 19 -64 77 -26 29 19 63 59 107 125 60 91 103 143 112 134 7 -7
-26 -60 -68 -111 -23 -27 -51 -67 -62 -88 -18 -37 -18 -40 -2 -51 26 -20 11
-42 -58 -86 -80 -50 -86 -56 -170 -172 -38 -54 -74 -101 -79 -104 -6 -3 -22
-24 -37 -47 l-27 -42 -5 35 -5 35 -33 -44 c-39 -54 -43 -79 -9 -56 27 17 37
11 37 -21 0 -18 4 -22 18 -17 9 4 19 9 22 13 11 12 60 40 72 40 7 0 24 9 38
20 14 11 33 20 43 20 10 0 28 7 40 15 25 16 143 55 169 55 10 0 33 14 53 31
26 23 35 27 35 15 0 -8 11 -19 26 -22 39 -10 75 29 73 80 -2 71 42 198 85 246
12 14 31 39 41 55 l18 30 -23 -20 c-17 -14 -22 -16 -18 -5 36 108 53 150 60
150 5 0 7 4 4 9 -3 5 -1 23 5 40 8 23 25 39 59 56 27 14 52 30 55 36 4 6 -12
1 -35 -11 -23 -12 -44 -20 -46 -17 -2 2 3 21 11 41 12 27 27 43 58 57 l42 20
-38 -7 -38 -6 6 34 c7 34 6 35 -24 30 -19 -3 -43 -18 -62 -40 -27 -31 -33 -33
-41 -19 -5 9 -14 17 -20 17 -11 0 -78 -70 -78 -82 0 -3 -16 -25 -35 -48 -51
-61 -43 -33 10 36 25 31 45 60 45 63 0 3 -13 13 -29 22 -15 9 -31 26 -34 38
-7 30 45 64 88 58 35 -5 59 5 98 42 22 20 30 23 36 12 11 -18 73 -7 93 17 19
22 78 185 78 216 0 13 7 42 15 65 17 48 9 52 -27 14z m-400 -540 c3 -23 -30
-53 -60 -53 -24 0 -23 21 3 54 24 31 53 31 57 -1z"/>
<path d="M10175 1773 c-22 -2 -73 -10 -112 -19 -64 -13 -77 -20 -108 -57 -38
-44 -51 -77 -41 -103 5 -13 16 -16 56 -12 28 3 50 1 50 -3 0 -5 -4 -9 -9 -9
-5 0 -15 -17 -22 -37 -6 -21 -20 -50 -30 -65 -21 -29 -25 -63 -8 -74 15 -9
119 45 119 63 0 7 19 31 42 53 37 33 40 40 28 55 -12 14 -8 21 31 58 43 41 77
80 93 106 9 14 -20 52 -38 49 -6 -1 -29 -3 -51 -5z"/>
<path d="M8954 1762 c-12 -2 -30 -12 -40 -23 -16 -17 -16 -22 -4 -29 21 -14
24 -13 49 14 27 29 25 42 -5 38z"/>
<path d="M13420 1710 c-9 -6 -10 -10 -3 -10 6 0 15 5 18 10 8 12 4 12 -15 0z"/>
<path d="M8895 1664 c-11 -8 -38 -19 -60 -25 -51 -14 -65 -26 -65 -55 0 -33
35 -32 99 2 57 29 91 71 70 85 -18 11 -21 11 -44 -7z"/>
<path d="M8985 1669 c-4 -6 -5 -13 -2 -16 7 -7 27 6 27 18 0 12 -17 12 -25 -2z"/>
<path d="M9398 1633 c-60 -9 -168 -135 -168 -195 0 -18 4 -20 48 -13 84 12
113 33 154 110 55 104 53 111 -34 98z"/>
<path d="M15096 1605 c4 -8 8 -15 10 -15 2 0 4 7 4 15 0 8 -4 15 -10 15 -5 0
-7 -7 -4 -15z"/>
<path d="M9058 1551 c-35 -8 -78 -46 -78 -70 0 -14 9 -21 32 -26 27 -6 35 -3
55 21 45 56 41 85 -9 75z"/>
<path d="M11797 1524 l-18 -39 21 21 c12 12 20 29 18 39 -2 13 -8 6 -21 -21z"/>
<path d="M11841 1527 c-13 -21 -12 -21 5 -5 10 10 16 20 13 22 -3 3 -11 -5
-18 -17z"/>
<path d="M9169 1478 c-13 -18 -29 -37 -36 -41 -21 -13 -15 -33 10 -32 38 1 56
18 63 63 8 51 -6 55 -37 10z"/>
<path d="M8895 1469 c-11 -17 1 -21 15 -4 8 9 8 15 2 15 -6 0 -14 -5 -17 -11z"/>
<path d="M9081 1447 c-6 -6 -11 -17 -11 -24 0 -15 42 -2 47 14 5 15 -23 23
-36 10z"/>
<path d="M10699 1351 c-37 -12 -69 -30 -69 -41 0 -11 46 7 81 32 27 19 25 20
-12 9z"/>
<path d="M13410 1315 c-14 -8 -19 -14 -10 -14 8 0 24 6 34 14 25 19 9 19 -24
0z"/>
<path d="M8944 1266 c-30 -30 -46 -76 -26 -76 37 0 86 25 102 53 28 45 25 57
-11 57 -22 0 -41 -10 -65 -34z"/>
<path d="M9375 1190 c-49 -4 -128 -9 -175 -13 -99 -6 -109 -15 -135 -105 -9
-31 -27 -80 -40 -107 -13 -28 -27 -63 -30 -78 -4 -15 -11 -30 -16 -33 -13 -8
-11 6 11 64 40 104 15 122 -29 20 -13 -29 -30 -68 -37 -87 -15 -33 -11 -71 7
-71 5 0 7 -11 3 -25 -12 -50 0 -57 57 -35 29 10 65 31 80 46 15 14 32 24 37
20 5 -3 27 11 48 31 31 29 40 33 42 20 3 -15 6 -15 33 -2 33 18 37 11 12 -18
-18 -19 -18 -20 14 -3 41 21 40 21 48 -14 4 -16 12 -30 18 -30 31 1 95 50 124
95 18 28 39 57 48 65 65 59 100 100 116 135 24 53 24 69 -1 62 -16 -4 -20 0
-20 17 0 28 -48 57 -92 54 -18 -1 -73 -5 -123 -8z m172 -72 c-3 -8 -6 -5 -6 6
-1 11 2 17 5 13 3 -3 4 -12 1 -19z m-55 -98 c-1 -14 -12 -32 -24 -40 -13 -8
-39 -29 -58 -46 -19 -17 -52 -43 -72 -58 l-38 -28 0 32 c0 26 9 42 43 73 100
94 155 118 149 67z"/>
<path d="M8853 1104 c-9 -24 2 -59 19 -62 18 -4 61 55 52 70 -8 12 -66 5 -71
-8z"/>
<path d="M9020 1081 c-31 -30 -35 -51 -12 -59 11 -3 56 77 47 86 -2 2 -18 -10
-35 -27z"/>
<path d="M11100 1090 c0 -5 7 -7 15 -4 8 4 15 8 15 10 0 2 -7 4 -15 4 -8 0
-15 -4 -15 -10z"/>
<path d="M10336 992 c-22 -27 -24 -32 -7 -17 20 17 47 55 39 55 -2 0 -16 -17
-32 -38z"/>
<path d="M11486 1002 c-9 -17 -16 -38 -16 -47 0 -25 25 -12 29 16 1 13 8 27
14 31 9 5 9 10 0 19 -8 8 -15 4 -27 -19z"/>
<path d="M12958 995 c-6 -14 -17 -24 -24 -21 -8 3 -11 0 -7 -9 3 -8 9 -12 14
-9 11 7 42 64 34 64 -3 0 -11 -11 -17 -25z"/>
<path d="M12956 934 c-10 -25 1 -29 14 -5 6 12 7 21 1 21 -5 0 -12 -7 -15 -16z"/>
<path d="M12921 924 c0 -11 3 -14 6 -6 3 7 2 16 -1 19 -3 4 -6 -2 -5 -13z"/>
<path d="M11178 743 c7 -3 16 -2 19 1 4 3 -2 6 -13 5 -11 0 -14 -3 -6 -6z"/>
<path d="M10831 707 c-13 -13 -15 -37 -3 -37 5 0 16 6 24 13 14 10 14 14 4 24
-10 8 -16 9 -25 0z"/>
<path d="M9501 701 c-10 -6 -10 -10 -1 -16 13 -8 24 -1 19 14 -3 6 -10 7 -18
2z"/>
<path d="M10842 626 c-44 -61 -40 -70 8 -18 22 24 40 47 40 52 0 21 -18 8 -48
-34z"/>
<path d="M9143 630 c-82 -7 -113 -20 -113 -46 0 -7 -18 -33 -40 -59 -38 -44
-42 -61 -18 -91 5 -7 17 -10 28 -7 12 3 22 -2 29 -15 6 -11 21 -22 33 -24 13
-2 23 -10 23 -18 0 -14 -21 -21 -100 -36 -13 -2 -21 -12 -22 -26 -1 -13 -11
-30 -23 -40 -38 -30 -21 -88 27 -88 36 0 128 38 168 70 44 35 55 37 55 10 0
-23 4 -24 31 -10 20 11 26 45 9 55 -14 9 6 45 25 45 8 0 24 17 35 38 12 20 27
48 35 62 33 59 77 169 71 179 -8 12 -121 12 -253 1z"/>
<path d="M9432 603 c-22 -57 -24 -73 -10 -73 18 0 64 49 73 78 6 19 3 22 -23
22 -23 0 -32 -6 -40 -27z"/>
<path d="M9646 557 c-16 -32 -25 -61 -22 -64 3 -3 9 3 12 13 4 10 16 31 26 47
11 15 18 35 15 45 -3 11 -13 -2 -31 -41z"/>
<path d="M11466 585 c-9 -26 -7 -32 5 -12 6 10 9 21 6 23 -2 3 -7 -2 -11 -11z"/>
<path d="M10752 518 c-14 -14 -17 -52 -3 -44 7 5 22 56 17 56 -1 0 -7 -5 -14
-12z"/>
<path d="M10080 469 c-59 -65 -181 -281 -167 -295 13 -13 52 16 66 49 8 18 26
46 40 62 72 80 116 174 94 196 -8 8 -17 5 -33 -12z"/>
<path d="M10006 464 c-5 -14 -4 -15 9 -4 17 14 19 20 6 20 -5 0 -12 -7 -15
-16z"/>
<path d="M9870 455 c-146 -44 -308 -136 -309 -177 -1 -9 11 -25 25 -35 49 -34
89 -72 76 -73 -7 0 -10 -5 -7 -10 4 -6 11 -8 16 -5 5 4 9 -10 9 -29 0 -40 9
-49 44 -40 17 4 33 23 53 60 24 46 26 57 15 74 -15 24 1 61 39 95 27 24 109
134 109 146 0 12 -15 10 -70 -6z m-120 -245 c0 -14 -52 -60 -62 -54 -16 10 -8
25 25 44 37 23 37 23 37 10z"/>
<path d="M10218 465 c-3 -6 -8 -26 -12 -45 l-6 -35 16 34 c14 30 16 68 2 46z"/>
<path d="M10183 454 c-7 -3 -10 -11 -7 -17 2 -7 -9 -27 -26 -45 -17 -19 -28
-38 -25 -43 9 -14 25 -11 25 5 0 7 11 25 25 40 14 15 25 36 25 47 0 10 -1 19
-2 18 -2 0 -8 -3 -15 -5z"/>
<path d="M10992 440 c0 -14 2 -19 5 -12 2 6 2 18 0 25 -3 6 -5 1 -5 -13z"/>
<path d="M11776 414 c-4 -10 -1 -14 6 -12 15 5 23 28 10 28 -5 0 -13 -7 -16
-16z"/>
<path d="M9934 352 c-19 -15 -54 -71 -54 -86 0 -11 71 37 80 54 12 22 13 50 3
50 -5 0 -18 -8 -29 -18z"/>
<path d="M10620 330 c0 -19 3 -21 12 -12 9 9 9 15 0 24 -9 9 -12 7 -12 -12z"/>
<path d="M10140 320 c0 -5 5 -10 10 -10 6 0 10 5 10 10 0 6 -4 10 -10 10 -5 0
-10 -4 -10 -10z"/>
<path d="M10592 280 c-7 -11 -8 -20 -3 -20 9 0 24 30 18 36 -1 2 -8 -6 -15
-16z"/>
<path d="M10376 243 c10 -40 14 -41 14 -5 0 18 -5 32 -10 32 -6 0 -8 -11 -4
-27z"/>
<path d="M15081 180 c-13 -62 -13 -67 -2 -54 10 10 26 104 18 104 -3 0 -10
-23 -16 -50z"/>
<path d="M8132 167 c-25 -27 -30 -46 -6 -27 15 13 38 50 31 50 -2 0 -13 -10
-25 -23z"/>
<path d="M12856 175 c4 -8 11 -15 16 -15 6 0 5 6 -2 15 -7 8 -14 15 -16 15 -2
0 -1 -7 2 -15z"/>
<path d="M9549 147 c-25 -19 -52 -76 -29 -62 6 4 10 -8 10 -30 0 -29 5 -37 26
-45 14 -6 38 -10 54 -10 23 0 31 5 36 25 7 27 -9 57 -55 105 -21 23 -29 26
-42 17z"/>
<path d="M10307 153 c-4 -3 -7 -11 -7 -17 0 -6 5 -5 12 2 6 6 9 14 7 17 -3 3
-9 2 -12 -2z"/>
<path d="M9827 110 c-24 -23 -39 -47 -43 -70 l-6 -35 36 39 c25 27 36 34 36
23 0 -9 5 -17 10 -17 17 0 23 29 14 63 l-10 31 -37 -34z"/>
<path d="M8986 115 c-4 -11 -14 -13 -37 -8 -26 5 -35 2 -50 -18 -30 -38 -25
-51 17 -43 27 5 35 4 30 -5 -4 -6 -19 -11 -34 -11 -15 0 -34 -4 -42 -10 -13
-8 -12 -10 1 -15 26 -10 154 -1 152 10 -1 6 -5 23 -8 38 -6 21 -4 27 8 27 22
0 31 18 17 35 -16 19 -46 19 -54 0z"/>
<path d="M10260 111 c0 -4 14 -15 30 -24 23 -14 30 -15 30 -5 0 8 -13 19 -30
25 -16 6 -30 8 -30 4z"/>
<path d="M9117 103 c-4 -3 -7 -11 -7 -17 0 -6 5 -5 12 2 6 6 9 14 7 17 -3 3
-9 2 -12 -2z"/>
<path d="M9986 61 c-32 -59 -32 -61 -3 -61 33 0 47 18 47 61 0 55 -14 55 -44
0z"/>
<path d="M9752 60 c-8 -13 -8 -20 -2 -20 6 0 13 7 17 15 9 24 -1 27 -15 5z"/>
<path d="M9665 40 c3 -5 8 -10 11 -10 2 0 4 5 4 10 0 6 -5 10 -11 10 -5 0 -7
-4 -4 -10z"/>
</g>
</svg>
